<?xml version="1.0" encoding="utf-8"?>
<!-- Generator: Adobe Illustrator 16.0.0, SVG Export Plug-In . SVG Version: 6.00 Build 0)  -->
<!DOCTYPE svg PUBLIC "-//W3C//DTD SVG 1.1//EN" "http://www.w3.org/Graphics/SVG/1.1/DTD/svg11.dtd">
<svg version="1.1" id="Layer_1" xmlns="http://www.w3.org/2000/svg" xmlns:xlink="http://www.w3.org/1999/xlink" x="0px" y="0px"
	 width="220px" height="220px" viewBox="0 0 220 220" enable-background="new 0 0 220 220" xml:space="preserve">
<path display="none" fill="#FFFFFF" stroke="#000000" stroke-miterlimit="10" d="M223.167,106.738"/>
<polygon display="none" fill="none" stroke="#000000" stroke-miterlimit="10" points="166.478,204.936 223.17,106.936 
	166.478,8.936 53.091,8.936 -3.602,106.936 53.091,204.936 "/>
<g>
	<path d="M164.183,44.894v-3.975H56.873v3.975l5.299,2.287v119.958l-5.299,2.287v3.975h107.31v-3.975l-5.3-2.287V47.18
		L164.183,44.894z M101.254,54.167h18.548c1.829,0,3.312,1.482,3.312,3.312s-1.482,3.312-3.312,3.312h-18.548
		c-1.83,0-3.312-1.482-3.312-3.312S99.424,54.167,101.254,54.167z M89.591,124.44c3.066-7.747,14.322-6.592,14.625-6.709
		c0.179-0.984,2.135-1.665,4.669-1.953c-0.674-2.904-1.13-7.722-1.171-11.342c-9.091,1.241-11.172-6.717-11.172-6.717
		c2.122-1.636,8.319-1.155,11.283,2.54c0.211-3.176,0.715-6.238,1.568-8.705c-1.189-0.152-20.262-3.952-15.332-26.094
		c0,0,17.079,1.56,18.297,19.049c2.388-6.632,6.313-10.287,16.983-9.526c0,0-1.305,12.776-14.756,16.165
		c-4.897,12.468-0.261,24.434-0.119,24.638c3.328,0.369,6.373,1.404,7.156,3.313c0.029,0.011,9.165-0.273,12.92,6.548
		c1.992,0.648,9.227,2.23,8.321,5.383c-0.396,0.02-63.758-0.019-65.059,0.003C78.929,129.587,83.696,125.335,89.591,124.44z
		 M136.36,154.853H83.369c-1.463,0-2.649-1.188-2.649-2.65s1.187-2.649,2.649-2.649h52.991c1.463,0,2.65,1.187,2.65,2.649
		S137.823,154.853,136.36,154.853z M136.36,141.604H83.369c-1.463,0-2.649-1.188-2.649-2.65s1.187-2.648,2.649-2.648h52.991
		c1.463,0,2.65,1.186,2.65,2.648S137.823,141.604,136.36,141.604z"/>
</g>
</svg>
