<?xml version="1.0" encoding="utf-8"?>
<!-- Generator: Adobe Illustrator 16.0.0, SVG Export Plug-In . SVG Version: 6.00 Build 0)  -->
<!DOCTYPE svg PUBLIC "-//W3C//DTD SVG 1.1//EN" "http://www.w3.org/Graphics/SVG/1.1/DTD/svg11.dtd">
<svg version="1.1" id="Layer_1" xmlns="http://www.w3.org/2000/svg" xmlns:xlink="http://www.w3.org/1999/xlink" x="0px" y="0px"
	 width="220px" height="220px" viewBox="0 0 220 220" enable-background="new 0 0 220 220" xml:space="preserve">
<path display="none" fill="#FFFFFF" stroke="#000000" stroke-miterlimit="10" d="M223.574,109.61"/>
<polygon display="none" fill="none" stroke="#000000" stroke-miterlimit="10" points="166.885,207.808 223.577,109.808 
	166.885,11.808 53.499,11.808 -3.194,109.808 53.499,207.808 "/>
<g>
	<path d="M181.6,90.319h-16.44l-5.886-9.332c-0.393-0.615-0.982-1.071-1.677-1.294l-5.216-1.662
		c-1.08-7.195-8.146-14.569-19.062-19.973c0.216-0.328,0.41-0.676,0.562-1.041c0.74-1.723,0.688-3.665-0.133-5.465
		c-1.158-2.523-3.684-4.561-6.93-5.593c-1.406-0.448-2.848-0.673-4.283-0.673c-4.055,0-7.359,1.819-8.613,4.75
		c-0.223,0.521-0.373,1.056-0.451,1.6c-3.587-0.608-7.102-0.92-10.502-0.92c-8.412,0-15.218,1.905-19.464,5.408l-5.512-1.748
		c-0.624-0.198-1.288-0.195-1.902,0.012l-16.57,5.469c-1.27,0.417-2.127,1.609-2.119,2.949c0.006,1.337,0.877,2.517,2.152,2.925
		l77.319,24.59h-24.148c-2.156-5.673-7.922-9.619-14.505-9.619c-6.586,0-12.352,3.946-14.511,9.619H39.55
		c-1.705,0-3.088,1.38-3.088,3.088v8.189c0,1.708,1.384,3.088,3.088,3.088h11.268v25.828c0,9.675,8.912,17.553,19.866,17.553h79.782
		c10.954,0,19.869-7.878,19.869-17.553v-25.828H181.6c1.708,0,3.088-1.381,3.088-3.088v-8.189
		C184.688,91.699,183.308,90.319,181.6,90.319z M90.747,90.319c1.698-2.094,4.428-3.443,7.473-3.443s5.772,1.352,7.467,3.443H90.747
		z"/>
	<path d="M82.758,163.552v-7.454c0-1.709-1.384-3.088-3.088-3.088s-3.088,1.379-3.088,3.088v7.454c0,1.708,1.383,3.089,3.088,3.089
		C81.371,166.641,82.758,165.26,82.758,163.552z"/>
	<path d="M95.119,163.552v-10.119c0-1.708-1.381-3.088-3.088-3.088c-1.708,0-3.088,1.38-3.088,3.088v10.119
		c0,1.708,1.38,3.089,3.088,3.089C93.738,166.641,95.119,165.26,95.119,163.552z"/>
	<path d="M107.483,163.552v-7.454c0-1.709-1.38-3.088-3.088-3.088s-3.088,1.379-3.088,3.088v7.454c0,1.708,1.38,3.089,3.088,3.089
		S107.483,165.26,107.483,163.552z"/>
	<path d="M119.845,163.552v-10.119c0-1.708-1.386-3.088-3.088-3.088c-1.708,0-3.088,1.38-3.088,3.088v10.119
		c0,1.708,1.38,3.089,3.088,3.089C118.459,166.641,119.845,165.26,119.845,163.552z"/>
	<path d="M132.209,163.552v-7.454c0-1.709-1.386-3.088-3.088-3.088c-1.707,0-3.088,1.379-3.088,3.088v7.454
		c0,1.708,1.381,3.089,3.088,3.089C130.823,166.641,132.209,165.26,132.209,163.552z"/>
	<path d="M144.568,163.552v-10.119c0-1.708-1.381-3.088-3.088-3.088c-1.708,0-3.088,1.38-3.088,3.088v10.119
		c0,1.708,1.38,3.089,3.088,3.089C143.188,166.641,144.568,165.26,144.568,163.552z"/>
	<path d="M164.767,168.101H56.383c-1.705,0-3.088,1.381-3.088,3.089c0,1.707,1.384,3.088,3.088,3.088h108.384
		c1.708,0,3.089-1.381,3.089-3.088C167.855,169.481,166.475,168.101,164.767,168.101z"/>
</g>
</svg>
