<?xml version="1.0" encoding="utf-8"?>
<!-- Generator: Adobe Illustrator 16.0.0, SVG Export Plug-In . SVG Version: 6.00 Build 0)  -->
<!DOCTYPE svg PUBLIC "-//W3C//DTD SVG 1.1//EN" "http://www.w3.org/Graphics/SVG/1.1/DTD/svg11.dtd">
<svg version="1.1" id="Layer_1" xmlns="http://www.w3.org/2000/svg" xmlns:xlink="http://www.w3.org/1999/xlink" x="0px" y="0px"
	 width="220px" height="220px" viewBox="0 0 220 220" enable-background="new 0 0 220 220" xml:space="preserve">
<path display="none" fill="#FFFFFF" stroke="#000000" stroke-miterlimit="10" d="M223.574,129.61"/>
<polygon display="none" fill="none" stroke="#000000" stroke-miterlimit="10" points="166.885,227.808 223.577,129.808 
	166.885,31.808 53.499,31.808 -3.194,129.808 53.499,227.808 "/>
<g>
	<path d="M118.376,59.763c-1.096-5.958,3.484-12.501,3.484-12.501s-3.529,8.825-1.502,12.774c13.461-0.568,3.26-15.286,6.617-20.672
		C126.985,39.257,106.468,49.766,118.376,59.763z"/>
	<path d="M99.853,117.634c0.937,0.571,1.727,1.057,2.364,1.4c8.118,4.352,17.399,5.545,29.118,3.746
		c1.053-0.162,2.305-0.507,3.713-1.021l2.096-0.882l4.691-2.322c2.525-1.393,5.383-3.139,8.746-5.332
		c0.061-0.039,0.121-0.08,0.182-0.117c-5.832-9.444-16.961-16.016-29.91-16.701c-0.025-2.279-0.045-4.537-0.061-6.751
		c3.535-5.806,12.057-8.095,12.057-8.095s-9.584,5.133-10.707,10.094c12.203,9.396,14.096-11.005,20.998-13.258
		c0.068-0.07-19.301-4.503-22.377,5.808c-0.018-4.985-0.012-9.583,0-13.436c3.484-5.721,11.881-7.978,11.881-7.978
		s-9.445,5.058-10.549,9.946c12.025,9.263,13.889-10.848,20.695-13.065c0.068-0.071-19.305-4.51-22.127,5.932
		c-0.16-2.328-0.539-3.919-1.338-3.919c-0.701,0-1.174,1.197-1.5,3.027c-1.285-12.791-22.962-7.662-22.891-7.585
		c7.103,2.164,8.852,22.81,21.153,13.344c-1.377-5.142-10.801-10.132-10.801-10.132s8.999,2.827,12.11,8.039
		c-0.023,0.296-0.047,0.584-0.066,0.89c-0.242,3.828-0.535,8.552-0.812,13.743c-1.807-12.349-23.244-7.27-23.17-7.195
		c7.202,2.197,8.981,23.145,21.458,13.541c-1.391-5.221-10.958-10.283-10.958-10.283s9.444,2.963,12.448,8.417
		c-0.137,2.897-0.262,5.894-0.365,8.943c-11.868,0.754-22.158,6.46-28.174,14.767c4.967,2.078,9.064,4.583,11.937,6.338
		L99.853,117.634z"/>
	<path d="M179.11,110.288c-4.713-6.822-14.99-0.104-25.867,7.008c-3.02,1.974-6.078,3.878-9.062,5.52
		c1.16,0.446,2.104,0.988,2.855,1.547c2.625,1.951,4.201,4.969,4.314,8.277c0.236,7.053-5.551,10.674-11.246,13.285
		c-5.633,2.588-14.652,2.874-22.611,3.127c-1.639,0.051-3.24,0.102-4.77,0.169c-7.784,0.358-13.555,2.519-13.616,2.534
		c-0.263,0.102-0.53,0.146-0.796,0.146c-0.907,0-1.762-0.548-2.102-1.445c-0.439-1.16,0.139-2.455,1.297-2.896
		c0.26-0.103,6.465-2.439,15.015-2.829c1.549-0.07,3.172-0.118,4.832-0.172c7.535-0.236,16.07-0.508,20.879-2.721
		c6.33-2.904,8.752-5.44,8.625-9.047c-0.039-1.137-0.416-3.275-2.502-4.828c-1.354-1.004-3.709-1.924-7.635-1.641
		c-1.617,0.592-3.18,1.036-4.645,1.26c-12.17,1.873-22.701,0.802-32.166-4.271c-0.734-0.396-1.66-0.963-2.757-1.631
		c-9.272-5.672-30.987-18.959-51.842,1.897l-0.001,0.003h-0.002l-9.892,9.983c-0.807,0.812-1.29,2.276-1.126,3.413l2.982,20.385
		l1.807,12.352c0.314,2.146,1.398,2.797,2.018,2.992c0.181,0.064,0.416,0.111,0.696,0.111c0.682,0,1.618-0.277,2.67-1.393
		c0.031-0.031,3.055-3.223,6.643-6.047c4.544-3.58,8.478-5.322,12.024-5.322c5.437,0,12.555,3.121,20.097,6.426
		c8.982,3.939,19.165,8.396,28.56,8.396c29.473,0,54.152-26.652,63.549-44.566C180.093,121.241,181.507,113.757,179.11,110.288z"/>
</g>
</svg>
