<?xml version="1.0" encoding="utf-8"?>
<!-- Generator: Adobe Illustrator 16.0.0, SVG Export Plug-In . SVG Version: 6.00 Build 0)  -->
<!DOCTYPE svg PUBLIC "-//W3C//DTD SVG 1.1//EN" "http://www.w3.org/Graphics/SVG/1.1/DTD/svg11.dtd">
<svg version="1.1" id="Layer_1" xmlns="http://www.w3.org/2000/svg" xmlns:xlink="http://www.w3.org/1999/xlink" x="0px" y="0px"
	 width="220px" height="220px" viewBox="530 290 220 220" enable-background="new 530 290 220 220" xml:space="preserve">
<path d="M699.391,386.988c-3.825,0-6.938,3.098-6.938,6.896v26.797c3.662,1.672,5.879,5.058,5.879,8.74
	c0,2.45-0.979,4.786-2.767,6.591l-14.218,15.597c-0.657,0.819-1.538,2.093-1.979,3.512c-0.243,0.76-0.315,1.573-0.338,2.591h-4.502
	c0.021-1.425,0.138-2.672,0.554-3.944c0.764-2.459,2.298-4.466,3.203-5.529l14.002-15c0.85-1,1.312-2.273,1.312-3.582
	c0-3.034-2.471-5.499-5.504-5.499c-1.438,0-2.797,0.543-3.829,1.542l-29.033,29.153c-5.021,5.256-4.691,10.612-4.691,14.622
	L650.568,480h24.902v-4.424c0-2.869,0.561-4.764,2.827-6.899l22.883-24.297c3.275-3.831,5.104-8.729,5.104-13.804v-36.692
	C706.286,390.085,703.198,386.988,699.391,386.988z"/>
<path d="M595.724,425.699c-1.038-0.993-2.395-1.539-3.83-1.539c-3.035,0-5.51,2.465-5.51,5.496c0,1.312,0.464,2.586,1.313,3.586
	l14.005,15c0.904,1.062,2.44,3.065,3.205,5.524c0.411,1.275,0.528,2.52,0.554,3.945h-4.509c-0.018-1.019-0.093-1.833-0.334-2.592
	c-0.44-1.419-1.318-2.691-1.981-3.506l-14.217-15.603c-1.791-1.805-2.767-4.141-2.767-6.591c0-3.683,2.211-7.068,5.878-8.74v-26.797
	c0-3.798-3.113-6.896-6.939-6.896c-3.808,0-6.893,3.098-6.893,6.896v36.692c0,5.074,1.826,9.973,5.101,13.804l22.885,24.296
	c2.27,2.139,2.825,4.033,2.825,6.9V480h24.906l0.028-10.526c0-4.01,0.328-9.366-4.689-14.622L595.724,425.699z"/>
<path d="M609.078,345.416c3.768,3.107,9.639,2.209,9.639,2.209s-0.242-5.929-4.013-9.037c-3.766-3.105-9.638-2.214-9.638-2.214
	S605.309,342.31,609.078,345.416z"/>
<path d="M684.225,358.222h-9.517c0-1.221,0-2.446,0-3.67c0-2.712-1.021-5.243-2.229-7.623c-0.675-1.331-1.424-2.624-2.084-3.965
	c-0.469-0.957-0.916-1.979-1.102-3.042c0.623-0.398,0.85-1.248,0.725-1.984c-0.146-0.847-0.95-1.29-1.733-1.29
	c-0.981,0-1.967,0-2.947,0c-0.96,0-1.914,0-2.876,0c-0.783,0-1.521,0.337-1.763,1.162c-0.223,0.758,0.023,1.688,0.688,2.112
	c-0.306,1.857-1.371,3.603-2.246,5.227c-1.148,2.136-2.301,4.312-2.854,6.687c-0.457,1.969-0.313,4.075-0.313,6.084
	c0,0.103,0,0.204,0,0.303h-7.108c-1.95-2.05-4.127-3.936-6.309-5.194c-0.493-0.286-0.644-0.702-0.578-1.102
	c0.141-0.814,1.162-1.56,2.141-1c2.554,1.475,5.017,3.147,7.178,5.094c0,0.001,0.256-1.816-0.078-3.614
	c-0.36-1.917-1.218-3.323-1.218-3.323c-2.574-3.509-6.264-7.427-9.966-9.552c-1.47-0.845,0.098-2.944,1.567-2.1
	c2.548,1.466,5.006,3.139,7.166,5.08c-3.152-15.732-9.168-23.36-16.779-22.437c-3.593,0.434-7.673,3.025-5.652,13.836l3.884,20.822
	c-2.611-3.518-6.785-5.806-11.502-5.806c-6.139,0-11.363,3.866-13.403,9.292h-9.55v55.289h88.462V358.222z M675.378,404.665h-70.769
	V367.07h70.769V404.665z"/>
</svg>
