<?xml version="1.0" encoding="utf-8"?>
<!-- Generator: Adobe Illustrator 16.0.0, SVG Export Plug-In . SVG Version: 6.00 Build 0)  -->
<!DOCTYPE svg PUBLIC "-//W3C//DTD SVG 1.1//EN" "http://www.w3.org/Graphics/SVG/1.1/DTD/svg11.dtd">
<svg version="1.1" id="Layer_1" xmlns="http://www.w3.org/2000/svg" xmlns:xlink="http://www.w3.org/1999/xlink" x="0px" y="0px"
	 width="220px" height="220px" viewBox="530 290 220 220" enable-background="new 530 290 220 220" xml:space="preserve">
<path fill="#808284" d="M559.551,407.049c0,8.622,6.169,15.797,14.333,17.37l23.317-49.55h17.859c3.109,0,5.632-2.52,5.632-5.631
	s-2.522-5.631-5.632-5.631h-8.804H593.34l-29.334,31.71l0.014,0.005C561.249,398.444,559.551,402.544,559.551,407.049z"/>
<path fill="#808284" d="M579.066,424.748h22.318c0-7.553,6.124-13.677,13.676-13.677c7.553,0,13.677,6.124,13.677,13.677h41.832
	v-61.142h-46.704c1.041,1.627,1.654,3.556,1.654,5.631c0,5.78-4.686,10.458-10.459,10.458h-14.794L579.066,424.748z"/>
<path fill="#808284" d="M604.603,424.748c0,5.776,4.683,10.458,10.458,10.458c5.776,0,10.459-4.682,10.459-10.458
	s-4.683-10.459-10.459-10.459C609.285,414.289,604.603,418.972,604.603,424.748z M609.43,424.748c0-3.11,2.52-5.632,5.631-5.632
	c3.112,0,5.632,2.521,5.632,5.632s-2.52,5.631-5.632,5.631C611.949,430.379,609.43,427.858,609.43,424.748z"/>
<path fill="#808284" d="M683.444,424.748c0,5.776,4.683,10.458,10.458,10.458c5.776,0,10.459-4.682,10.459-10.458
	s-4.683-10.459-10.459-10.459C688.127,414.289,683.444,418.972,683.444,424.748z M688.271,424.748c0-3.11,2.521-5.632,5.631-5.632
	c3.11,0,5.632,2.521,5.632,5.632s-2.521,5.631-5.632,5.631C690.793,430.379,688.271,427.858,688.271,424.748z"/>
<path fill="#808284" d="M675.396,378.087v46.661h4.83c0-7.555,6.122-13.677,13.676-13.677c7.555,0,13.677,6.122,13.677,13.677h12.87
	v-8.045h-3.218v-19.308l-11.263-19.308H675.396z M693.902,382.916h10.052l7.353,12.87h-17.404V382.916z"/>
</svg>
