<?xml version="1.0" encoding="utf-8"?>
<!-- Generator: Adobe Illustrator 16.0.0, SVG Export Plug-In . SVG Version: 6.00 Build 0)  -->
<!DOCTYPE svg PUBLIC "-//W3C//DTD SVG 1.1//EN" "http://www.w3.org/Graphics/SVG/1.1/DTD/svg11.dtd">
<svg version="1.1" id="Layer_1" xmlns="http://www.w3.org/2000/svg" xmlns:xlink="http://www.w3.org/1999/xlink" x="0px" y="0px"
	 width="220px" height="220px" viewBox="0 0 220 220" enable-background="new 0 0 220 220" xml:space="preserve">
<pattern  x="-211" y="-130" width="28.799" height="28.799" patternUnits="userSpaceOnUse" id="_x31_0_dpi_50_x25__4" viewBox="3.6 -32.399 28.799 28.799" overflow="visible">
	<g>
		<polygon fill="none" points="3.6,-32.399 32.399,-32.399 32.399,-3.601 3.6,-3.601 		"/>
		<g>
			<path fill="#202020" d="M32.399,0c1.988,0,3.6-1.611,3.6-3.601c0-1.988-1.611-3.6-3.6-3.6s-3.6,1.611-3.6,3.6
				C28.799-1.611,30.411,0,32.399,0z"/>
			<path fill="#202020" d="M17.997,0c1.989,0,3.603-1.611,3.603-3.601c0-1.988-1.613-3.6-3.603-3.6c-1.988,0-3.599,1.611-3.599,3.6
				C14.397-1.611,16.008,0,17.997,0z"/>
			<path fill="#202020" d="M32.399-14.399c1.988,0,3.6-1.612,3.6-3.601c0-1.989-1.611-3.601-3.6-3.601s-3.6,1.611-3.6,3.601
				C28.799-16.012,30.411-14.399,32.399-14.399z"/>
			<path fill="#202020" d="M17.997-14.399c1.989,0,3.603-1.612,3.603-3.601c0-1.989-1.613-3.601-3.603-3.601
				c-1.988,0-3.599,1.611-3.599,3.601C14.397-16.012,16.008-14.399,17.997-14.399z"/>
			<path fill="#202020" d="M10.798-7.2c1.988,0,3.599-1.611,3.599-3.6c0-1.989-1.611-3.6-3.599-3.6c-1.989,0-3.601,1.61-3.601,3.6
				C7.198-8.812,8.809-7.2,10.798-7.2z"/>
			<path fill="#202020" d="M25.2-7.2c1.988,0,3.6-1.611,3.6-3.6c0-1.989-1.611-3.6-3.6-3.6s-3.601,1.61-3.601,3.6
				C21.599-8.812,23.211-7.2,25.2-7.2z"/>
			<path fill="#202020" d="M10.798-21.601c1.988,0,3.599-1.611,3.599-3.6c0-1.989-1.611-3.6-3.599-3.6
				c-1.989,0-3.601,1.61-3.601,3.6C7.198-23.212,8.809-21.601,10.798-21.601z"/>
			<path fill="#202020" d="M25.2-21.601c1.988,0,3.6-1.611,3.6-3.6c0-1.989-1.611-3.6-3.6-3.6s-3.601,1.61-3.601,3.6
				C21.599-23.212,23.211-21.601,25.2-21.601z"/>
		</g>
		<g>
			<path fill="#202020" d="M3.6,0c1.988,0,3.6-1.611,3.6-3.601c0-1.988-1.611-3.6-3.6-3.6S0-5.589,0-3.601C0-1.611,1.611,0,3.6,0z"
				/>
			<path fill="#202020" d="M3.6-14.399c1.988,0,3.6-1.612,3.6-3.601c0-1.989-1.611-3.601-3.6-3.601S0-19.989,0-18
				C0-16.012,1.611-14.399,3.6-14.399z"/>
		</g>
		<g>
			<path fill="#202020" d="M32.399-28.799c1.988,0,3.6-1.611,3.6-3.601c0-1.988-1.611-3.6-3.6-3.6s-3.6,1.611-3.6,3.6
				C28.799-30.41,30.411-28.799,32.399-28.799z"/>
			<path fill="#202020" d="M17.997-28.799c1.989,0,3.603-1.611,3.603-3.601c0-1.988-1.613-3.6-3.603-3.6
				c-1.988,0-3.599,1.611-3.599,3.6C14.397-30.41,16.008-28.799,17.997-28.799z"/>
		</g>
		<g>
			<path fill="#202020" d="M3.6-28.799c1.988,0,3.6-1.611,3.6-3.601c0-1.988-1.611-3.6-3.6-3.6S0-34.388,0-32.399
				C0-30.41,1.611-28.799,3.6-28.799z"/>
		</g>
	</g>
</pattern>
<path display="none" fill="#FFFFFF" stroke="#000000" stroke-miterlimit="10" d="M222.574,109.61"/>
<polygon display="none" fill="none" stroke="#000000" stroke-miterlimit="10" points="165.885,207.808 222.577,109.808 
	165.885,11.808 52.499,11.808 -4.194,109.808 52.499,207.808 "/>
<path fill="#666666" d="M157.502,67.048h-4.943c-3.098-16.334-18.851-27.066-35.186-23.968c-1.49,0.283-2.957,0.678-4.389,1.181
	c-5.301-9.667-15.451-15.674-26.475-15.67l0,0C69.85,28.584,56.34,42.084,56.334,58.743c-0.001,2.935,0.426,5.853,1.268,8.664
	C43.2,69.665,33.355,83.171,35.614,97.573c2.021,12.887,13.15,22.365,26.194,22.306h95.694c14.59,0,26.416-11.826,26.416-26.416
	C183.918,78.875,172.092,67.048,157.502,67.048z"/>
<g>
	<pattern  id="SVGID_1_" xlink:href="#_x31_0_dpi_50_x25__4" patternTransform="matrix(0.2978 0 0 0.2978 -5352.958 -5358.7207)">
	</pattern>
	<path opacity="0.6" fill="url(#SVGID_1_)" d="M93.291,151.703c-0.028-0.246-0.068-0.489-0.115-0.731
		c-0.128-0.678-0.321-1.34-0.558-1.988c-0.522,0.748-1.22,1.155-2.133,1.156c-0.97,0.001-1.693-0.46-2.22-1.278
		c-0.523,0.827-1.248,1.287-2.217,1.291c-0.978,0.004-1.705-0.463-2.228-1.279c-0.531,0.816-1.254,1.268-2.217,1.267
		c-0.953-0.003-1.667-0.454-2.189-1.242c-0.109,0.298-0.212,0.598-0.309,0.901c-0.13,0.413-0.234,0.825-0.309,1.237
		c-0.245,1.341-0.178,2.68,0.357,4.017c1.248,3.127,4.597,4.943,8.111,4.393c3.468-0.543,6.14-3.612,6.081-6.979
		C93.328,152.213,93.319,151.957,93.291,151.703z"/>
	<g opacity="0.6">
		<path d="M86.02,163.549c-4.686,0-8.79-2.695-10.455-6.865c-0.979-2.446-1.011-5.049-0.094-7.958
			c0.89-2.829,2.267-5.654,4.465-9.161c1.327-2.115,2.889-4.314,4.916-6.92c0.316-0.406,0.697-0.611,1.133-0.611
			c0.644,0,1.005,0.455,1.125,0.604c0.899,1.12,1.79,2.308,2.719,3.624c2.633,3.736,4.388,6.746,5.69,9.762
			c0.895,2.075,1.401,3.83,1.593,5.523c0.031,0.261,0.046,0.525,0.061,0.789l0.021,0.363c0.091,5.172-3.989,9.873-9.288,10.701
			C87.282,163.499,86.647,163.549,86.02,163.549z M85.992,134.908c-1.661,2.173-2.982,4.057-4.12,5.869
			c-2.09,3.336-3.392,5.998-4.22,8.634c-0.751,2.386-0.74,4.487,0.036,6.424c1.316,3.298,4.587,5.429,8.333,5.429
			c0.51,0,1.025-0.04,1.534-0.119c4.188-0.656,7.416-4.334,7.359-8.381l-0.019-0.295c-0.013-0.221-0.024-0.442-0.05-0.662
			c-0.166-1.466-0.617-3.016-1.421-4.878c-1.237-2.864-2.921-5.749-5.459-9.35C87.291,136.627,86.641,135.745,85.992,134.908z"/>
	</g>
</g>
<g>
	<pattern  id="SVGID_2_" xlink:href="#_x31_0_dpi_50_x25__4" patternTransform="matrix(0.2978 0 0 0.2978 -5351.0859 -5349.042)">
	</pattern>
	<path opacity="0.6" fill="url(#SVGID_2_)" d="M120.894,178.535c-0.028-0.246-0.068-0.49-0.114-0.732
		c-0.129-0.678-0.322-1.34-0.559-1.988c-0.521,0.748-1.219,1.155-2.133,1.156c-0.97,0.002-1.693-0.459-2.22-1.277
		c-0.523,0.826-1.248,1.287-2.218,1.291c-0.978,0.003-1.705-0.463-2.228-1.279c-0.53,0.815-1.254,1.268-2.217,1.266
		c-0.953-0.002-1.667-0.453-2.189-1.242c-0.109,0.298-0.212,0.598-0.309,0.902c-0.13,0.412-0.234,0.824-0.309,1.236
		c-0.245,1.342-0.178,2.68,0.357,4.018c1.248,3.126,4.598,4.942,8.111,4.393c3.469-0.543,6.14-3.613,6.081-6.979
		C120.931,179.044,120.922,178.789,120.894,178.535z"/>
	<g opacity="0.6">
		<path d="M113.623,190.381c-4.686,0-8.79-2.695-10.455-6.866c-0.979-2.446-1.011-5.049-0.094-7.958
			c0.89-2.828,2.267-5.654,4.465-9.16c1.327-2.116,2.888-4.315,4.916-6.921c0.316-0.405,0.697-0.61,1.134-0.61
			c0.644,0,1.005,0.455,1.125,0.604c0.899,1.121,1.79,2.309,2.72,3.625c2.633,3.735,4.388,6.746,5.689,9.762
			c0.896,2.074,1.402,3.83,1.594,5.523c0.031,0.26,0.046,0.524,0.061,0.789l0.021,0.363c0.092,5.172-3.988,9.872-9.288,10.701
			C114.885,190.33,114.25,190.381,113.623,190.381z M113.595,161.74c-1.661,2.172-2.982,4.057-4.12,5.869
			c-2.09,3.335-3.392,5.998-4.22,8.633c-0.751,2.386-0.74,4.487,0.036,6.424c1.316,3.299,4.586,5.43,8.333,5.43
			c0.51,0,1.025-0.041,1.533-0.12c4.189-0.655,7.416-4.334,7.359-8.38l-0.019-0.296c-0.013-0.221-0.024-0.442-0.05-0.662
			c-0.166-1.466-0.617-3.015-1.422-4.878c-1.237-2.864-2.922-5.748-5.459-9.35C114.895,163.458,114.244,162.576,113.595,161.74z"/>
	</g>
</g>
<g>
	<pattern  id="SVGID_3_" xlink:href="#_x31_0_dpi_50_x25__4" patternTransform="matrix(0.2978 0 0 0.2978 -5355.0234 -5358.7207)">
	</pattern>
	<path opacity="0.6" fill="url(#SVGID_3_)" d="M151.262,151.703c-0.027-0.246-0.068-0.489-0.115-0.731
		c-0.127-0.678-0.32-1.34-0.557-1.988c-0.523,0.748-1.221,1.155-2.134,1.156c-0.97,0.001-1.693-0.46-2.22-1.278
		c-0.523,0.827-1.248,1.287-2.217,1.291c-0.979,0.004-1.705-0.463-2.229-1.279c-0.531,0.816-1.254,1.268-2.217,1.267
		c-0.953-0.003-1.666-0.454-2.189-1.242c-0.109,0.298-0.212,0.598-0.309,0.901c-0.13,0.413-0.234,0.825-0.309,1.237
		c-0.245,1.341-0.178,2.68,0.356,4.017c1.248,3.127,4.597,4.943,8.111,4.393c3.468-0.543,6.14-3.612,6.081-6.979
		C151.299,152.213,151.291,151.957,151.262,151.703z"/>
	<g opacity="0.6">
		<path d="M143.991,163.549c-4.687,0-8.79-2.695-10.454-6.865c-0.979-2.446-1.012-5.049-0.094-7.958
			c0.89-2.829,2.267-5.654,4.465-9.161c1.326-2.115,2.889-4.314,4.916-6.92c0.315-0.406,0.697-0.611,1.133-0.611
			c0.644,0,1.006,0.455,1.125,0.604c0.899,1.12,1.79,2.308,2.719,3.624c2.633,3.736,4.389,6.746,5.691,9.762
			c0.895,2.075,1.4,3.83,1.593,5.523c0.03,0.261,0.046,0.525,0.062,0.789l0.021,0.363c0.091,5.172-3.989,9.873-9.288,10.701
			C145.253,163.499,144.618,163.549,143.991,163.549z M143.963,134.908c-1.661,2.173-2.982,4.057-4.12,5.869
			c-2.09,3.336-3.392,5.998-4.22,8.634c-0.752,2.386-0.74,4.487,0.035,6.424c1.316,3.298,4.588,5.429,8.333,5.429
			c0.51,0,1.024-0.04,1.534-0.119c4.188-0.656,7.416-4.334,7.358-8.381l-0.019-0.295c-0.013-0.221-0.024-0.442-0.051-0.662
			c-0.166-1.466-0.617-3.016-1.421-4.878c-1.237-2.864-2.921-5.749-5.46-9.35C145.262,136.627,144.611,135.745,143.963,134.908z"/>
	</g>
</g>
</svg>
