<?xml version="1.0" encoding="utf-8"?>
<!-- Generator: Adobe Illustrator 16.0.0, SVG Export Plug-In . SVG Version: 6.00 Build 0)  -->
<!DOCTYPE svg PUBLIC "-//W3C//DTD SVG 1.1//EN" "http://www.w3.org/Graphics/SVG/1.1/DTD/svg11.dtd">
<svg version="1.1" id="Layer_1" xmlns="http://www.w3.org/2000/svg" xmlns:xlink="http://www.w3.org/1999/xlink" x="0px" y="0px"
	 width="220px" height="220px" viewBox="0 0 220 220" enable-background="new 0 0 220 220" xml:space="preserve">
<pattern  x="-529.5" y="510.5" width="28.799" height="28.799" patternUnits="userSpaceOnUse" id="SVGID_1_" viewBox="3.6 -32.4 28.799 28.799" overflow="visible">
	<g>
		<polygon fill="none" points="3.6,-3.602 32.399,-3.602 32.399,-32.4 3.6,-32.4 		"/>
		<g>
			<polygon fill="none" points="3.6,-3.602 32.399,-3.602 32.399,-32.398 3.6,-32.398 			"/>
			<g>
				<path fill="#202020" d="M32.399-36c1.988,0,3.6,1.611,3.6,3.602c0,1.987-1.611,3.6-3.6,3.6c-1.989,0-3.6-1.611-3.6-3.6
					C28.799-34.389,30.411-36,32.399-36z"/>
				<path fill="#202020" d="M17.997-36c1.989,0,3.603,1.611,3.603,3.602c0,1.987-1.613,3.6-3.603,3.6
					c-1.988,0-3.599-1.611-3.599-3.6C14.397-34.389,16.008-36,17.997-36z"/>
				<path fill="#202020" d="M32.399-21.602c1.988,0,3.6,1.612,3.6,3.602s-1.611,3.602-3.6,3.602c-1.989,0-3.6-1.611-3.6-3.602
					C28.799-19.988,30.411-21.602,32.399-21.602z"/>
				<path fill="#202020" d="M17.997-21.602c1.989,0,3.603,1.612,3.603,3.602s-1.613,3.602-3.603,3.602
					c-1.988,0-3.599-1.611-3.599-3.602C14.397-19.988,16.008-21.602,17.997-21.602z"/>
				<path fill="#202020" d="M10.798-28.8c1.988,0,3.599,1.61,3.599,3.6S12.786-21.6,10.798-21.6c-1.989,0-3.601-1.61-3.601-3.601
					C7.198-27.188,8.809-28.8,10.798-28.8z"/>
				<path fill="#202020" d="M25.2-28.8c1.988,0,3.6,1.61,3.6,3.6S27.189-21.6,25.2-21.6c-1.989,0-3.601-1.61-3.601-3.601
					C21.599-27.188,23.211-28.8,25.2-28.8z"/>
				<path fill="#202020" d="M10.798-14.398c1.988,0,3.599,1.61,3.599,3.6c0,1.988-1.611,3.6-3.599,3.6
					c-1.989,0-3.601-1.609-3.601-3.6C7.198-12.788,8.809-14.398,10.798-14.398z"/>
				<path fill="#202020" d="M25.2-14.398c1.988,0,3.6,1.61,3.6,3.6c0,1.988-1.611,3.6-3.6,3.6c-1.989,0-3.601-1.609-3.601-3.6
					C21.599-12.788,23.211-14.398,25.2-14.398z"/>
			</g>
			<g>
				<path fill="#202020" d="M3.6-36c1.988,0,3.6,1.611,3.6,3.602c0,1.987-1.611,3.6-3.6,3.6c-1.989,0-3.6-1.612-3.6-3.6
					C0-34.389,1.611-36,3.6-36z"/>
				<path fill="#202020" d="M3.6-21.602c1.988,0,3.6,1.612,3.6,3.602s-1.611,3.602-3.6,3.602C1.611-14.398,0-16.011,0-18
					C0-19.988,1.611-21.602,3.6-21.602z"/>
			</g>
			<g>
				<path fill="#202020" d="M32.399-7.201c1.988,0,3.6,1.611,3.6,3.602c0,1.988-1.611,3.6-3.6,3.6c-1.989,0-3.6-1.611-3.6-3.6
					C28.799-5.59,30.411-7.201,32.399-7.201z"/>
				<path fill="#202020" d="M17.997-7.201c1.989,0,3.603,1.611,3.603,3.602c0,1.988-1.613,3.6-3.603,3.6
					c-1.988,0-3.599-1.611-3.599-3.6C14.397-5.59,16.008-7.201,17.997-7.201z"/>
			</g>
			<g>
				<path fill="#202020" d="M3.6-7.201c1.988,0,3.6,1.611,3.6,3.602C7.2-1.611,5.589,0,3.6,0C1.611,0,0-1.611,0-3.602
					C0-5.59,1.611-7.201,3.6-7.201z"/>
			</g>
		</g>
	</g>
</pattern>
<pattern  x="-529.5" y="510.5" width="28.799" height="28.799" patternUnits="userSpaceOnUse" id="SVGID_2_" viewBox="3.6 -32.4 28.799 28.799" overflow="visible">
	<g>
		<polygon fill="none" points="3.6,-3.602 32.399,-3.602 32.399,-32.4 3.6,-32.4 		"/>
		<g>
			<polygon fill="none" points="3.6,-3.602 32.399,-3.602 32.399,-32.398 3.6,-32.398 			"/>
			<g>
				<path fill="#202020" d="M32.399-36c1.988,0,3.6,1.611,3.6,3.602c0,1.987-1.611,3.6-3.6,3.6c-1.989,0-3.6-1.611-3.6-3.6
					C28.799-34.389,30.411-36,32.399-36z"/>
				<path fill="#202020" d="M17.997-36c1.989,0,3.603,1.611,3.603,3.602c0,1.987-1.613,3.6-3.603,3.6
					c-1.988,0-3.599-1.611-3.599-3.6C14.397-34.389,16.008-36,17.997-36z"/>
				<path fill="#202020" d="M32.399-21.602c1.988,0,3.6,1.612,3.6,3.602s-1.611,3.602-3.6,3.602c-1.989,0-3.6-1.611-3.6-3.602
					C28.799-19.988,30.411-21.602,32.399-21.602z"/>
				<path fill="#202020" d="M17.997-21.602c1.989,0,3.603,1.612,3.603,3.602s-1.613,3.602-3.603,3.602
					c-1.988,0-3.599-1.611-3.599-3.602C14.397-19.988,16.008-21.602,17.997-21.602z"/>
				<path fill="#202020" d="M10.798-28.8c1.988,0,3.599,1.61,3.599,3.6S12.786-21.6,10.798-21.6c-1.989,0-3.601-1.61-3.601-3.601
					C7.198-27.188,8.809-28.8,10.798-28.8z"/>
				<path fill="#202020" d="M25.2-28.8c1.988,0,3.6,1.61,3.6,3.6S27.189-21.6,25.2-21.6c-1.989,0-3.601-1.61-3.601-3.601
					C21.599-27.188,23.211-28.8,25.2-28.8z"/>
				<path fill="#202020" d="M10.798-14.398c1.988,0,3.599,1.61,3.599,3.6c0,1.988-1.611,3.6-3.599,3.6
					c-1.989,0-3.601-1.609-3.601-3.6C7.198-12.788,8.809-14.398,10.798-14.398z"/>
				<path fill="#202020" d="M25.2-14.398c1.988,0,3.6,1.61,3.6,3.6c0,1.988-1.611,3.6-3.6,3.6c-1.989,0-3.601-1.609-3.601-3.6
					C21.599-12.788,23.211-14.398,25.2-14.398z"/>
			</g>
			<g>
				<path fill="#202020" d="M3.6-36c1.988,0,3.6,1.611,3.6,3.602c0,1.987-1.611,3.6-3.6,3.6c-1.989,0-3.6-1.612-3.6-3.6
					C0-34.389,1.611-36,3.6-36z"/>
				<path fill="#202020" d="M3.6-21.602c1.988,0,3.6,1.612,3.6,3.602s-1.611,3.602-3.6,3.602C1.611-14.398,0-16.011,0-18
					C0-19.988,1.611-21.602,3.6-21.602z"/>
			</g>
			<g>
				<path fill="#202020" d="M32.399-7.201c1.988,0,3.6,1.611,3.6,3.602c0,1.988-1.611,3.6-3.6,3.6c-1.989,0-3.6-1.611-3.6-3.6
					C28.799-5.59,30.411-7.201,32.399-7.201z"/>
				<path fill="#202020" d="M17.997-7.201c1.989,0,3.603,1.611,3.603,3.602c0,1.988-1.613,3.6-3.603,3.6
					c-1.988,0-3.599-1.611-3.599-3.6C14.397-5.59,16.008-7.201,17.997-7.201z"/>
			</g>
			<g>
				<path fill="#202020" d="M3.6-7.201c1.988,0,3.6,1.611,3.6,3.602C7.2-1.611,5.589,0,3.6,0C1.611,0,0-1.611,0-3.602
					C0-5.59,1.611-7.201,3.6-7.201z"/>
			</g>
		</g>
	</g>
</pattern>
<pattern  x="-529.5" y="510.5" width="28.799" height="28.799" patternUnits="userSpaceOnUse" id="SVGID_3_" viewBox="3.6 -32.4 28.799 28.799" overflow="visible">
	<g>
		<polygon fill="none" points="3.6,-3.602 32.399,-3.602 32.399,-32.4 3.6,-32.4 		"/>
		<g>
			<polygon fill="none" points="3.6,-3.602 32.399,-3.602 32.399,-32.398 3.6,-32.398 			"/>
			<g>
				<path fill="#202020" d="M32.399-36c1.988,0,3.6,1.611,3.6,3.602c0,1.987-1.611,3.6-3.6,3.6c-1.989,0-3.6-1.611-3.6-3.6
					C28.799-34.389,30.411-36,32.399-36z"/>
				<path fill="#202020" d="M17.997-36c1.989,0,3.603,1.611,3.603,3.602c0,1.987-1.613,3.6-3.603,3.6
					c-1.988,0-3.599-1.611-3.599-3.6C14.397-34.389,16.008-36,17.997-36z"/>
				<path fill="#202020" d="M32.399-21.602c1.988,0,3.6,1.612,3.6,3.602s-1.611,3.602-3.6,3.602c-1.989,0-3.6-1.611-3.6-3.602
					C28.799-19.988,30.411-21.602,32.399-21.602z"/>
				<path fill="#202020" d="M17.997-21.602c1.989,0,3.603,1.612,3.603,3.602s-1.613,3.602-3.603,3.602
					c-1.988,0-3.599-1.611-3.599-3.602C14.397-19.988,16.008-21.602,17.997-21.602z"/>
				<path fill="#202020" d="M10.798-28.8c1.988,0,3.599,1.61,3.599,3.6S12.786-21.6,10.798-21.6c-1.989,0-3.601-1.61-3.601-3.601
					C7.198-27.188,8.809-28.8,10.798-28.8z"/>
				<path fill="#202020" d="M25.2-28.8c1.988,0,3.6,1.61,3.6,3.6S27.189-21.6,25.2-21.6c-1.989,0-3.601-1.61-3.601-3.601
					C21.599-27.188,23.211-28.8,25.2-28.8z"/>
				<path fill="#202020" d="M10.798-14.398c1.988,0,3.599,1.61,3.599,3.6c0,1.988-1.611,3.6-3.599,3.6
					c-1.989,0-3.601-1.609-3.601-3.6C7.198-12.788,8.809-14.398,10.798-14.398z"/>
				<path fill="#202020" d="M25.2-14.398c1.988,0,3.6,1.61,3.6,3.6c0,1.988-1.611,3.6-3.6,3.6c-1.989,0-3.601-1.609-3.601-3.6
					C21.599-12.788,23.211-14.398,25.2-14.398z"/>
			</g>
			<g>
				<path fill="#202020" d="M3.6-36c1.988,0,3.6,1.611,3.6,3.602c0,1.987-1.611,3.6-3.6,3.6c-1.989,0-3.6-1.612-3.6-3.6
					C0-34.389,1.611-36,3.6-36z"/>
				<path fill="#202020" d="M3.6-21.602c1.988,0,3.6,1.612,3.6,3.602s-1.611,3.602-3.6,3.602C1.611-14.398,0-16.011,0-18
					C0-19.988,1.611-21.602,3.6-21.602z"/>
			</g>
			<g>
				<path fill="#202020" d="M32.399-7.201c1.988,0,3.6,1.611,3.6,3.602c0,1.988-1.611,3.6-3.6,3.6c-1.989,0-3.6-1.611-3.6-3.6
					C28.799-5.59,30.411-7.201,32.399-7.201z"/>
				<path fill="#202020" d="M17.997-7.201c1.989,0,3.603,1.611,3.603,3.602c0,1.988-1.613,3.6-3.603,3.6
					c-1.988,0-3.599-1.611-3.599-3.6C14.397-5.59,16.008-7.201,17.997-7.201z"/>
			</g>
			<g>
				<path fill="#202020" d="M3.6-7.201c1.988,0,3.6,1.611,3.6,3.602C7.2-1.611,5.589,0,3.6,0C1.611,0,0-1.611,0-3.602
					C0-5.59,1.611-7.201,3.6-7.201z"/>
			</g>
		</g>
	</g>
</pattern>
<path display="none" fill="#FFFFFF" stroke="#000000" stroke-miterlimit="10" d="M222.574,109.61"/>
<polygon display="none" fill="none" stroke="#000000" stroke-miterlimit="10" points="165.885,207.809 222.577,109.808 
	165.885,11.808 52.499,11.808 -4.194,109.808 52.499,207.809 "/>
<polygon points="56.911,184.224 56.911,174.076 96.526,174.076 96.43,125.687 56.911,92.767 56.911,78.365 115.654,127.284 
	115.654,141.552 107.059,134.426 107.059,184.224 "/>
<path d="M138.583,151.906c-1.628,0-2.967-1.293-3.11-2.919c-0.093-1.671,1.198-3.157,2.869-3.298c0.049,0,0.049,0,0.049,0
	c1.817,0,3.154,1.242,3.301,2.867c0.047,0.813-0.192,1.627-0.767,2.248c-0.523,0.621-1.289,1.005-2.103,1.055
	C138.776,151.906,138.632,151.906,138.583,151.906L138.583,151.906z M136.955,142.485c-1.339,0-2.534-0.859-2.964-2.153
	c-0.478-1.63,0.381-3.397,2.011-3.924c1.674-0.529,3.396,0.435,3.92,2.008c0.527,1.631-0.381,3.396-2.008,3.925
	C137.579,142.438,137.29,142.485,136.955,142.485L136.955,142.485z M131.792,134.543c-0.862,0-1.628-0.336-2.205-0.911
	c-0.62-0.62-0.906-1.387-0.906-2.198c0-0.861,0.335-1.627,0.956-2.2c1.197-1.145,3.253-1.145,4.4,0.051
	c0.05,0.046,0.05,0.046,0.096,0.093c0.527,0.569,0.767,1.337,0.767,2.104c0,0.812-0.334,1.624-0.959,2.203
	C133.367,134.253,132.604,134.543,131.792,134.543L131.792,134.543z M124.806,127.989c-0.717,0-1.48-0.285-2.056-0.813
	c-0.621-0.527-0.959-1.293-1.005-2.152c-0.048-0.813,0.191-1.626,0.765-2.253c1.1-1.196,3.157-1.336,4.402-0.233
	c0.621,0.569,0.956,1.335,1.004,2.148c0.047,0.859-0.238,1.626-0.766,2.253C126.575,127.605,125.716,127.989,124.806,127.989
	L124.806,127.989z M117.537,121.725c-0.72,0-1.388-0.243-1.962-0.72c-0.622-0.528-1.053-1.243-1.099-2.103
	c-0.096-0.817,0.143-1.63,0.668-2.252c1.051-1.289,3.111-1.486,4.352-0.431c1.342,1.103,1.533,3.061,0.435,4.355
	C119.354,121.296,118.491,121.725,117.537,121.725L117.537,121.725z"/>
<polygon points="155.88,138.749 155.88,157.106 126.852,157.106 126.852,138.749 120.004,138.749 120.004,184.224 162.727,184.224 
	162.727,138.749 "/>
<rect x="56.911" y="131.591" width="18.614" height="18.321"/>
<path d="M111.963,46.559h-1.951c-1.224-6.451-7.444-10.688-13.896-9.465c-0.589,0.111-1.167,0.268-1.731,0.466
	c-2.095-3.817-6.104-6.189-10.457-6.188l0,0c-6.579-0.002-11.914,5.329-11.917,11.907c0,1.159,0.168,2.312,0.501,3.422
	c-5.688,0.892-9.575,6.226-8.684,11.913c0.799,5.089,5.193,8.833,10.344,8.809h37.79c5.763,0,10.433-4.67,10.433-10.432
	S117.725,46.559,111.963,46.559z"/>
<g>
	<pattern  id="SVGID_4_" xlink:href="#SVGID_1_" patternTransform="matrix(0.1176 0 0 -0.1176 -12908.7002 -2412.1182)">
	</pattern>
	<path fill="url(#SVGID_4_)" d="M86.606,79.991c-0.011-0.099-0.027-0.193-0.045-0.291c-0.05-0.268-0.127-0.528-0.22-0.785
		c-0.207,0.297-0.482,0.457-0.843,0.459c-0.383,0-0.669-0.182-0.876-0.506c-0.207,0.328-0.493,0.51-0.875,0.511
		c-0.386,0.001-0.674-0.183-0.88-0.507c-0.209,0.324-0.495,0.502-0.875,0.502c-0.376-0.002-0.658-0.18-0.865-0.491
		c-0.043,0.118-0.084,0.235-0.122,0.356c-0.051,0.162-0.092,0.324-0.123,0.487c-0.097,0.53-0.07,1.06,0.141,1.586
		c0.493,1.234,1.816,1.952,3.203,1.735c1.37-0.215,2.425-1.426,2.402-2.758C86.62,80.192,86.618,80.089,86.606,79.991z"/>
	<g>
		<path d="M83.735,84.667c-1.85,0-3.471-1.064-4.128-2.712c-0.387-0.967-0.399-1.993-0.037-3.143
			c0.352-1.117,0.895-2.232,1.764-3.617c0.523-0.836,1.14-1.705,1.941-2.733c0.125-0.16,0.275-0.241,0.448-0.241
			c0.254,0,0.397,0.18,0.444,0.238c0.355,0.443,0.707,0.912,1.074,1.432c1.04,1.475,1.732,2.664,2.247,3.854
			c0.354,0.82,0.553,1.515,0.629,2.183c0.012,0.103,0.019,0.208,0.024,0.312l0.008,0.144c0.036,2.042-1.575,3.899-3.668,4.226
			C84.233,84.648,83.983,84.667,83.735,84.667z M83.723,73.358c-0.656,0.858-1.178,1.603-1.627,2.317
			c-0.825,1.315-1.339,2.368-1.667,3.409c-0.296,0.941-0.292,1.771,0.015,2.537c0.519,1.302,1.811,2.144,3.29,2.144
			c0.201,0,0.405-0.017,0.606-0.046c1.654-0.26,2.928-1.712,2.906-3.311l-0.008-0.115c-0.004-0.088-0.01-0.174-0.02-0.262
			c-0.065-0.578-0.243-1.19-0.561-1.926c-0.489-1.132-1.153-2.27-2.156-3.693C84.237,74.036,83.98,73.688,83.723,73.358z"/>
	</g>
</g>
<g>
	<pattern  id="SVGID_5_" xlink:href="#SVGID_2_" patternTransform="matrix(0.1176 0 0 -0.1176 -12907.9609 -2415.9404)">
	</pattern>
	<path fill="url(#SVGID_5_)" d="M97.508,90.586c-0.012-0.098-0.027-0.193-0.047-0.29c-0.05-0.269-0.127-0.529-0.22-0.785
		c-0.206,0.294-0.481,0.456-0.843,0.456c-0.383,0.001-0.668-0.18-0.875-0.504c-0.207,0.326-0.493,0.508-0.877,0.511
		c-0.385,0-0.674-0.183-0.879-0.505c-0.21,0.32-0.496,0.5-0.876,0.499c-0.376,0-0.657-0.179-0.864-0.49
		c-0.043,0.118-0.083,0.237-0.122,0.356c-0.051,0.164-0.092,0.326-0.123,0.488c-0.097,0.53-0.069,1.059,0.142,1.586
		c0.493,1.234,1.816,1.953,3.203,1.734c1.37-0.214,2.426-1.427,2.402-2.756C97.521,90.788,97.518,90.686,97.508,90.586z"/>
	<g>
		<path d="M94.637,95.263c-1.853,0-3.473-1.063-4.129-2.712c-0.387-0.966-0.399-1.994-0.037-3.143
			c0.352-1.117,0.896-2.233,1.764-3.619c0.524-0.834,1.14-1.703,1.939-2.731c0.125-0.16,0.275-0.241,0.448-0.241
			c0.253,0,0.397,0.18,0.444,0.238c0.354,0.443,0.707,0.912,1.074,1.432c1.039,1.476,1.731,2.664,2.246,3.854
			c0.354,0.819,0.555,1.513,0.629,2.182c0.013,0.104,0.019,0.206,0.023,0.312l0.01,0.144c0.035,2.042-1.576,3.898-3.668,4.226
			C95.135,95.243,94.883,95.263,94.637,95.263z M94.624,83.952c-0.655,0.858-1.178,1.603-1.627,2.318
			c-0.825,1.318-1.339,2.369-1.667,3.41c-0.296,0.941-0.292,1.771,0.015,2.537c0.519,1.302,1.811,2.145,3.292,2.145
			c0.2,0,0.403-0.016,0.604-0.048c1.654-0.259,2.928-1.711,2.906-3.309l-0.008-0.117c-0.004-0.087-0.008-0.175-0.019-0.263
			c-0.065-0.579-0.244-1.189-0.562-1.926c-0.488-1.131-1.154-2.271-2.155-3.692C95.139,84.631,94.881,84.284,94.624,83.952z"/>
	</g>
</g>
<g>
	<pattern  id="SVGID_6_" xlink:href="#SVGID_3_" patternTransform="matrix(0.1176 0 0 -0.1176 -12909.5156 -2412.1182)">
	</pattern>
	<path fill="url(#SVGID_6_)" d="M109.499,79.991c-0.01-0.099-0.026-0.193-0.046-0.291c-0.05-0.268-0.125-0.528-0.219-0.785
		c-0.208,0.297-0.482,0.457-0.842,0.459c-0.383,0-0.668-0.182-0.877-0.506c-0.207,0.328-0.494,0.51-0.875,0.511
		c-0.388,0.001-0.674-0.183-0.881-0.507c-0.209,0.324-0.494,0.502-0.875,0.502c-0.377-0.002-0.658-0.18-0.867-0.491
		c-0.041,0.118-0.082,0.235-0.121,0.356c-0.051,0.162-0.092,0.324-0.122,0.487c-0.097,0.53-0.071,1.06,0.141,1.586
		c0.493,1.234,1.815,1.952,3.204,1.735c1.369-0.215,2.424-1.426,2.4-2.758C109.514,80.192,109.512,80.089,109.499,79.991z"/>
	<g>
		<path d="M106.628,84.667c-1.85,0-3.471-1.064-4.128-2.712c-0.387-0.967-0.4-1.993-0.037-3.143
			c0.352-1.117,0.896-2.232,1.764-3.617c0.522-0.836,1.141-1.705,1.94-2.733c0.125-0.16,0.275-0.241,0.447-0.241
			c0.255,0,0.397,0.18,0.444,0.238c0.355,0.443,0.707,0.912,1.074,1.432c1.039,1.475,1.731,2.664,2.246,3.854
			c0.354,0.82,0.553,1.515,0.629,2.183c0.012,0.103,0.019,0.208,0.024,0.312l0.008,0.144c0.036,2.042-1.575,3.899-3.667,4.226
			C107.126,84.648,106.875,84.667,106.628,84.667z M106.617,73.358c-0.656,0.858-1.178,1.603-1.627,2.317
			c-0.825,1.315-1.338,2.368-1.666,3.409c-0.297,0.941-0.292,1.771,0.014,2.537c0.521,1.302,1.812,2.144,3.291,2.144
			c0.201,0,0.405-0.017,0.606-0.046c1.653-0.26,2.929-1.712,2.905-3.311l-0.006-0.115c-0.006-0.088-0.011-0.174-0.021-0.262
			c-0.064-0.578-0.243-1.19-0.561-1.926c-0.49-1.132-1.154-2.27-2.158-3.693C107.131,74.036,106.872,73.688,106.617,73.358z"/>
	</g>
</g>
</svg>
