<?xml version="1.0" encoding="utf-8"?>
<!-- Generator: Adobe Illustrator 16.0.0, SVG Export Plug-In . SVG Version: 6.00 Build 0)  -->
<!DOCTYPE svg PUBLIC "-//W3C//DTD SVG 1.1//EN" "http://www.w3.org/Graphics/SVG/1.1/DTD/svg11.dtd">
<svg version="1.1" id="Layer_1" xmlns="http://www.w3.org/2000/svg" xmlns:xlink="http://www.w3.org/1999/xlink" x="0px" y="0px"
	 width="220px" height="220px" viewBox="0 0 220 220" enable-background="new 0 0 220 220" xml:space="preserve">
<pattern  x="-210" y="-130" width="28.799" height="28.799" patternUnits="userSpaceOnUse" id="_x31_0_dpi_50_x25__4" viewBox="3.6 -32.399 28.799 28.799" overflow="visible">
	<g>
		<polygon fill="none" points="3.6,-32.399 32.399,-32.399 32.399,-3.601 3.6,-3.601 		"/>
		<g>
			<path fill="#202020" d="M32.399,0c1.988,0,3.6-1.611,3.6-3.601c0-1.988-1.611-3.6-3.6-3.6s-3.6,1.611-3.6,3.6
				C28.799-1.611,30.411,0,32.399,0z"/>
			<path fill="#202020" d="M17.997,0c1.989,0,3.603-1.611,3.603-3.601c0-1.988-1.613-3.6-3.603-3.6c-1.988,0-3.599,1.611-3.599,3.6
				C14.397-1.611,16.008,0,17.997,0z"/>
			<path fill="#202020" d="M32.399-14.399c1.988,0,3.6-1.612,3.6-3.601c0-1.989-1.611-3.601-3.6-3.601s-3.6,1.611-3.6,3.601
				C28.799-16.012,30.411-14.399,32.399-14.399z"/>
			<path fill="#202020" d="M17.997-14.399c1.989,0,3.603-1.612,3.603-3.601c0-1.989-1.613-3.601-3.603-3.601
				c-1.988,0-3.599,1.611-3.599,3.601C14.397-16.012,16.008-14.399,17.997-14.399z"/>
			<path fill="#202020" d="M10.798-7.2c1.988,0,3.599-1.611,3.599-3.6c0-1.989-1.611-3.6-3.599-3.6c-1.989,0-3.601,1.61-3.601,3.6
				C7.198-8.812,8.809-7.2,10.798-7.2z"/>
			<path fill="#202020" d="M25.2-7.2c1.988,0,3.6-1.611,3.6-3.6c0-1.989-1.611-3.6-3.6-3.6s-3.601,1.61-3.601,3.6
				C21.599-8.812,23.211-7.2,25.2-7.2z"/>
			<path fill="#202020" d="M10.798-21.601c1.988,0,3.599-1.611,3.599-3.6c0-1.989-1.611-3.6-3.599-3.6
				c-1.989,0-3.601,1.61-3.601,3.6C7.198-23.212,8.809-21.601,10.798-21.601z"/>
			<path fill="#202020" d="M25.2-21.601c1.988,0,3.6-1.611,3.6-3.6c0-1.989-1.611-3.6-3.6-3.6s-3.601,1.61-3.601,3.6
				C21.599-23.212,23.211-21.601,25.2-21.601z"/>
		</g>
		<g>
			<path fill="#202020" d="M3.6,0c1.988,0,3.6-1.611,3.6-3.601c0-1.988-1.611-3.6-3.6-3.6S0-5.589,0-3.601C0-1.611,1.611,0,3.6,0z"
				/>
			<path fill="#202020" d="M3.6-14.399c1.988,0,3.6-1.612,3.6-3.601c0-1.989-1.611-3.601-3.6-3.601S0-19.989,0-18
				C0-16.012,1.611-14.399,3.6-14.399z"/>
		</g>
		<g>
			<path fill="#202020" d="M32.399-28.799c1.988,0,3.6-1.611,3.6-3.601c0-1.988-1.611-3.6-3.6-3.6s-3.6,1.611-3.6,3.6
				C28.799-30.41,30.411-28.799,32.399-28.799z"/>
			<path fill="#202020" d="M17.997-28.799c1.989,0,3.603-1.611,3.603-3.601c0-1.988-1.613-3.6-3.603-3.6
				c-1.988,0-3.599,1.611-3.599,3.6C14.397-30.41,16.008-28.799,17.997-28.799z"/>
		</g>
		<g>
			<path fill="#202020" d="M3.6-28.799c1.988,0,3.6-1.611,3.6-3.601c0-1.988-1.611-3.6-3.6-3.6S0-34.388,0-32.399
				C0-30.41,1.611-28.799,3.6-28.799z"/>
		</g>
	</g>
</pattern>
<path display="none" fill="#FFFFFF" stroke="#000000" stroke-miterlimit="10" d="M223.574,109.61"/>
<polygon display="none" fill="none" stroke="#000000" stroke-miterlimit="10" points="166.885,207.808 223.577,109.808 
	166.885,11.808 53.499,11.808 -3.194,109.808 53.499,207.808 "/>
<path d="M99.637,50.547h-1.952c-1.223-6.451-7.444-10.688-13.895-9.465c-0.589,0.111-1.167,0.268-1.732,0.466
	c-2.094-3.817-6.103-6.189-10.456-6.188l0,0c-6.579-0.002-11.914,5.329-11.917,11.907c0,1.159,0.168,2.312,0.501,3.422
	c-5.688,0.892-9.575,6.226-8.684,11.913c0.799,5.089,5.193,8.833,10.344,8.809h37.79c5.762,0,10.432-4.67,10.432-10.432
	C110.069,55.217,105.399,50.547,99.637,50.547z"/>
<g>
	<pattern  id="SVGID_1_" xlink:href="#_x31_0_dpi_50_x25__4" patternTransform="matrix(0.1176 0 0 0.1176 -6735.2559 -6739.0117)">
	</pattern>
	<path fill="url(#SVGID_1_)" d="M74.28,83.978c-0.011-0.098-0.027-0.193-0.045-0.29c-0.05-0.268-0.127-0.529-0.22-0.785
		c-0.207,0.296-0.482,0.456-0.843,0.458c-0.383,0-0.669-0.182-0.876-0.505c-0.207,0.327-0.493,0.509-0.875,0.51
		c-0.386,0.001-0.674-0.183-0.88-0.506c-0.209,0.323-0.495,0.501-0.875,0.501c-0.376-0.001-0.658-0.179-0.865-0.491
		c-0.043,0.118-0.084,0.236-0.122,0.356c-0.051,0.163-0.092,0.325-0.123,0.488c-0.097,0.53-0.07,1.059,0.141,1.586
		c0.493,1.234,1.816,1.952,3.203,1.735c1.37-0.215,2.425-1.426,2.402-2.757C74.294,84.179,74.292,84.077,74.28,83.978z"/>
	<g>
		<path d="M71.409,88.655c-1.85,0-3.471-1.064-4.128-2.711c-0.387-0.967-0.399-1.994-0.037-3.143
			c0.352-1.118,0.895-2.233,1.764-3.617c0.523-0.836,1.14-1.705,1.941-2.734c0.125-0.16,0.275-0.241,0.448-0.241
			c0.254,0,0.397,0.179,0.444,0.238c0.355,0.443,0.707,0.912,1.074,1.432c1.04,1.475,1.732,2.664,2.247,3.854
			c0.354,0.82,0.553,1.514,0.629,2.182c0.012,0.103,0.019,0.208,0.024,0.311l0.008,0.144c0.036,2.042-1.575,3.899-3.668,4.226
			C71.907,88.636,71.657,88.655,71.409,88.655z M71.397,77.346c-0.656,0.858-1.178,1.602-1.627,2.317
			c-0.825,1.316-1.339,2.368-1.667,3.409c-0.296,0.942-0.292,1.772,0.015,2.537c0.519,1.302,1.811,2.144,3.29,2.144
			c0.201,0,0.405-0.016,0.606-0.046c1.654-0.26,2.928-1.712,2.906-3.31l-0.008-0.116c-0.004-0.087-0.01-0.174-0.02-0.261
			c-0.065-0.579-0.243-1.191-0.561-1.926c-0.489-1.132-1.153-2.27-2.156-3.693C71.911,78.024,71.654,77.676,71.397,77.346z"/>
	</g>
</g>
<g>
	<pattern  id="SVGID_2_" xlink:href="#_x31_0_dpi_50_x25__4" patternTransform="matrix(0.1176 0 0 0.1176 -6734.5166 -6735.1895)">
	</pattern>
	<path fill="url(#SVGID_2_)" d="M85.181,94.574c-0.011-0.097-0.027-0.193-0.046-0.29c-0.05-0.268-0.127-0.529-0.22-0.785
		c-0.206,0.294-0.481,0.456-0.843,0.456c-0.383,0.001-0.668-0.18-0.875-0.504c-0.207,0.327-0.493,0.508-0.876,0.511
		c-0.386,0-0.674-0.183-0.88-0.505c-0.21,0.321-0.496,0.5-0.876,0.499c-0.376,0-0.657-0.178-0.864-0.49
		c-0.043,0.118-0.083,0.237-0.122,0.356c-0.051,0.164-0.092,0.327-0.123,0.489c-0.097,0.53-0.069,1.058,0.142,1.586
		c0.493,1.234,1.816,1.952,3.203,1.734c1.37-0.214,2.425-1.427,2.402-2.756C85.195,94.775,85.191,94.674,85.181,94.574z"/>
	<g>
		<path d="M82.31,99.251c-1.852,0-3.472-1.064-4.129-2.712c-0.387-0.966-0.399-1.994-0.037-3.143
			c0.352-1.117,0.896-2.233,1.764-3.618c0.524-0.835,1.14-1.704,1.94-2.732c0.125-0.16,0.275-0.241,0.448-0.241
			c0.253,0,0.397,0.179,0.444,0.238c0.354,0.443,0.707,0.912,1.074,1.432c1.04,1.475,1.732,2.663,2.246,3.854
			c0.354,0.82,0.555,1.513,0.63,2.182c0.012,0.103,0.018,0.206,0.023,0.311l0.009,0.144c0.036,2.042-1.575,3.898-3.667,4.226
			C82.808,99.231,82.557,99.251,82.31,99.251z M82.298,87.94c-0.656,0.858-1.178,1.602-1.627,2.318
			c-0.825,1.318-1.339,2.369-1.667,3.41c-0.296,0.941-0.292,1.771,0.015,2.537c0.519,1.302,1.811,2.144,3.291,2.144
			c0.201,0,0.404-0.015,0.604-0.047c1.654-0.259,2.928-1.711,2.907-3.309l-0.008-0.117c-0.005-0.087-0.009-0.175-0.019-0.263
			c-0.065-0.579-0.244-1.189-0.562-1.926c-0.488-1.131-1.154-2.271-2.155-3.692C82.812,88.619,82.555,88.271,82.298,87.94z"/>
	</g>
</g>
<g>
	<pattern  id="SVGID_3_" xlink:href="#_x31_0_dpi_50_x25__4" patternTransform="matrix(0.1176 0 0 0.1176 -6736.0718 -6739.0117)">
	</pattern>
	<path fill="url(#SVGID_3_)" d="M97.173,83.978c-0.01-0.098-0.027-0.193-0.046-0.29c-0.05-0.268-0.125-0.529-0.219-0.785
		c-0.208,0.296-0.482,0.456-0.842,0.458c-0.383,0-0.668-0.182-0.877-0.505c-0.206,0.327-0.493,0.509-0.875,0.51
		c-0.387,0.001-0.673-0.183-0.881-0.506c-0.209,0.323-0.494,0.501-0.875,0.501c-0.376-0.001-0.658-0.179-0.866-0.491
		c-0.042,0.118-0.083,0.236-0.122,0.356c-0.051,0.163-0.092,0.325-0.122,0.488c-0.096,0.53-0.071,1.059,0.141,1.586
		c0.493,1.234,1.816,1.952,3.204,1.735c1.369-0.215,2.424-1.426,2.401-2.757C97.187,84.179,97.185,84.077,97.173,83.978z"/>
	<g>
		<path d="M94.302,88.655c-1.85,0-3.471-1.064-4.128-2.711c-0.387-0.967-0.4-1.994-0.037-3.143c0.351-1.118,0.895-2.233,1.763-3.617
			c0.523-0.836,1.141-1.705,1.941-2.734c0.125-0.16,0.275-0.241,0.447-0.241c0.255,0,0.398,0.179,0.444,0.238
			c0.356,0.443,0.707,0.912,1.074,1.432c1.04,1.475,1.732,2.664,2.247,3.854c0.354,0.82,0.553,1.514,0.629,2.182
			c0.012,0.103,0.018,0.208,0.024,0.311l0.008,0.144c0.036,2.042-1.575,3.899-3.667,4.226C94.8,88.636,94.549,88.655,94.302,88.655z
			 M94.291,77.346c-0.656,0.858-1.178,1.602-1.627,2.317c-0.825,1.316-1.338,2.368-1.666,3.409
			c-0.297,0.942-0.292,1.772,0.014,2.537c0.52,1.302,1.812,2.144,3.291,2.144c0.201,0,0.405-0.016,0.606-0.046
			c1.653-0.26,2.929-1.712,2.905-3.31l-0.006-0.116c-0.005-0.087-0.01-0.174-0.021-0.261c-0.065-0.579-0.243-1.191-0.561-1.926
			c-0.489-1.132-1.154-2.27-2.157-3.693C94.804,78.024,94.546,77.676,94.291,77.346z"/>
	</g>
</g>
<g>
	<path d="M79.889,135.717h16.353v34.763h75.59v-34.763h16.353l-8.448-7.473l-17.977-16.027V97.055h-16.894v0.217l-8.015-7.04
		l-2.814-2.49l-2.816,2.49l-42.885,38.012L79.889,135.717z"/>
</g>
<line fill="none" stroke="#000000" stroke-width="4" stroke-linecap="round" stroke-miterlimit="10" x1="82.005" y1="124.755" x2="121.643" y2="88.129"/>
</svg>
