<?xml version="1.0" encoding="utf-8"?>
<!-- Generator: Adobe Illustrator 16.0.0, SVG Export Plug-In . SVG Version: 6.00 Build 0)  -->
<!DOCTYPE svg PUBLIC "-//W3C//DTD SVG 1.1//EN" "http://www.w3.org/Graphics/SVG/1.1/DTD/svg11.dtd">
<svg version="1.1" id="Layer_1" xmlns="http://www.w3.org/2000/svg" xmlns:xlink="http://www.w3.org/1999/xlink" x="0px" y="0px"
	 width="220px" height="220px" viewBox="0 0 220 220" enable-background="new 0 0 220 220" xml:space="preserve">
<path display="none" fill="#FFFFFF" stroke="#000000" stroke-miterlimit="10" d="M223.574,109.61"/>
<polygon display="none" fill="none" stroke="#000000" stroke-miterlimit="10" points="166.885,207.808 223.577,109.808 
	166.885,11.808 53.499,11.808 -3.194,109.808 53.499,207.808 "/>
<path d="M40.507,77.767l7.308,91.982c0,5.494,15.649,9.944,34.965,9.944c19.314,0,34.982-4.45,34.982-9.944l7.289-91.982H40.507z
	 M61.283,168.656c-0.036,0-0.073,0-0.11,0c-1.444,0-2.646-1.146-2.701-2.589l-3.237-75.499c-0.056-1.489,1.109-2.756,2.59-2.82
	c1.389-0.158,2.738,1.1,2.812,2.59l3.237,75.498C63.928,167.325,62.781,168.592,61.283,168.656z M85.481,165.992
	c0,1.49-1.203,2.701-2.701,2.701c-1.481,0-2.702-1.212-2.702-2.701V90.496c0-1.489,1.221-2.702,2.702-2.702
	c1.498,0,2.701,1.212,2.701,2.702V165.992z M107.107,166.113c-0.074,1.443-1.257,2.58-2.701,2.58c-0.056,0-0.074,0-0.13,0
	c-1.48-0.065-2.646-1.323-2.572-2.812l3.22-75.507c0.073-1.489,1.183-2.783,2.831-2.58c1.479,0.065,2.644,1.333,2.57,2.812
	L107.107,166.113z"/>
<path d="M93.565,46.522l-4.365,0.73c-0.426-2.535-1.796-4.754-3.885-6.253c-2.109-1.499-4.607-2.062-7.178-1.665
	c-5.237,0.87-8.789,5.828-7.938,11.072l-4.236,0.712c-23.052,3.829-26.121,15.66-25.344,20.322l83.508-13.874
	C123.33,52.894,116.598,42.701,93.565,46.522z M75.546,49.518c-0.185-1.12,0.074-2.229,0.721-3.144
	c0.667-0.917,1.63-1.518,2.757-1.702c2.312-0.388,4.458,1.183,4.828,3.468L75.546,49.518z"/>
<path d="M158.926,138.392c0.48,0.603,0.775,1.157,0.924,1.609c0.443,1.305-0.074,2.239-1.535,2.72l-4.068,1.352l-2.701-3.101
	c-0.52-1.534,0.146-2.997,1.996-4.411L158.926,138.392z"/>
<path d="M139.797,127.401l5.383,1.831c0.48,0.611,0.777,1.148,0.924,1.61c0.426,1.313-0.055,2.229-1.533,2.729l-4.053,1.35
	l-2.701-3.108C137.279,130.28,137.965,128.809,139.797,127.401z"/>
<path d="M149.711,131.62l-0.203-6.382c0.812-0.703,1.535-1.166,2.236-1.396c1.334-0.443,2.555-0.35,3.758,0.23
	c1.184,0.593,1.924,1.36,2.238,2.276c0.387,1.157-0.223,2.655-1.85,4.495L149.711,131.62z"/>
<path d="M175.703,143.608c-0.387,0.147-1.85,0.759-4.42,1.878l-2.275,0.12l-1.314-1.239c-0.777-0.795-1.26-1.48-1.48-2.1
	c-0.758-2.312-0.979-4.635-0.646-6.938c0.332-2.313,1.201-3.7,2.607-4.164c0.98,0.38,1.961,0.731,2.941,1.073
	c2.018,0.628,3.145,0.888,3.365,0.814l-0.035-0.131c1.24-0.406,2.146,0.325,2.775,2.174c0.557,1.628,0.666,3.302,0.352,5.052
	C177.256,141.896,176.611,143.062,175.703,143.608z"/>
<path d="M180.256,158.631l-4.516,1.5c-1.904-0.288-3.348-0.88-4.328-1.758l1.35-4.838l5.199-1.756L180.256,158.631z"/>
<path d="M146.086,156.123l-4.514,1.51c-1.906-0.277-3.33-0.881-4.328-1.758l1.35-4.837l5.217-1.747L146.086,156.123z"/>
<path d="M161.848,162.295c1.59,1.804,3.199,5.077,4.791,9.83c0.205,0.584,0.166,1.205-0.074,1.853
	c-0.24,0.656-0.648,1.304-1.186,1.942c-0.535,0.628-1.201,1.221-1.977,1.738c-0.799,0.51-1.611,0.898-2.463,1.184l-7.307,2.453
	c-0.295-0.693-1.666-2.043-4.125-4.069c-2.332-2.082-3.533-3.173-3.572-3.302c-0.555-1.676-0.223-3.969,1.02-6.874
	c1.275-3.052,2.775-5.402,4.586-7.021l0.594-0.175C155.982,158.556,159.221,159.369,161.848,162.295z"/>
<path d="M133.025,79.081c-0.297-0.306-3.406-2.859-3.738-3.072c-2.201-1.378-5.197-0.896-7.75-1.416
	c-2.498-0.5-4.828-1.673-7.234-2.256c-2.721-0.638-6.105-0.842-8.992-0.593c-3.773,0.333-6.957,2.156-10.914,2.063
	c3.016-1.564,4.995-5.235,8.213-6.411c3.237-1.184,7.972-3.625,10.972-5.226c4.865-2.563,14.205,0.48,13.91-0.388
	c0,0,8.066,5.458,10.23,6.744l8.512,7.918c1.107,0.878-1.445,13.375-1.445,13.375l-5.66,3.968l-1.406-5.605l-3.404-2.321
	C133.877,85.861,133.988,80.108,133.025,79.081z"/>
<path d="M138.188,113.916c0,0-3.83,0.268-8.309-4.208v-9.481h8.309C138.188,100.226,143.238,108.857,138.188,113.916z"/>
<path d="M156.594,108.837l-2.201-14.92l9.23,6.114l6.752,6.169c0,0,1.463,7.918,1.463,11.146h-7.641
	C164.199,117.348,156.594,115.692,156.594,108.837z"/>
</svg>
