<?xml version="1.0" encoding="utf-8"?>
<!-- Generator: Adobe Illustrator 16.0.0, SVG Export Plug-In . SVG Version: 6.00 Build 0)  -->
<!DOCTYPE svg PUBLIC "-//W3C//DTD SVG 1.1//EN" "http://www.w3.org/Graphics/SVG/1.1/DTD/svg11.dtd">
<svg version="1.1" id="Layer_1" xmlns="http://www.w3.org/2000/svg" xmlns:xlink="http://www.w3.org/1999/xlink" x="0px" y="0px"
	 width="220px" height="220px" viewBox="530 290 220 220" enable-background="new 530 290 220 220" xml:space="preserve">
<g>
	<path d="M678.01,374.888v-21.637h-13.951v9.809l-23.066-19.555l-67.726,57.456h19.643v71.534h96.183v-71.534h19.642L678.01,374.888
		z M666.678,425.413c1.948,0,3.526,1.438,3.526,3.213c0,1.775-1.578,3.214-3.526,3.214c-1.946,0-3.525-1.438-3.525-3.214
		C663.152,426.852,664.731,425.413,666.678,425.413z M644.45,401.19c3.021,0,5.473,2.234,5.473,4.988
		c0,2.755-2.451,4.988-5.473,4.988c-3.006,0-5.473-2.233-5.473-4.988C638.977,403.425,641.428,401.19,644.45,401.19z M621.147,406.5
		c2.77,0,5.02,2.051,5.02,4.56c0,2.525-2.25,4.575-5.02,4.575s-5.02-2.05-5.02-4.575C616.128,408.551,618.377,406.5,621.147,406.5z
		 M653.6,435.236V419.43h-1.914l-0.017,42.201c0,1.484-1.259,2.999-2.888,2.999c-1.627,0-2.854-1.515-2.854-2.999v-24.437h-2.266
		v24.437c0,1.484-1.227,2.999-2.855,2.999c-1.628,0-2.887-1.515-2.887-2.999V419.43h-1.948v15.807c0,1.484-1.074,2.127-2.065,2.096
		h-0.017h-0.016c-0.067,0-0.134,0.016-0.186,0.016c-0.855,0-1.543-0.535-1.863-1.453l-4.096-12.578h-1.713l7.035,22.08h-6.396
		v17.443c0,1.347-1.125,1.974-2.166,1.974c-0.571,0-1.108-0.168-1.511-0.489c-0.437-0.353-0.672-0.872-0.672-1.469v-17.566h-2.485
		v17.535c0,1.362-1.125,1.989-2.183,1.989s-2.183-0.627-2.183-1.989v-17.428h-6.43l7.018-22.08h-1.612l-4.113,12.624
		c-0.302,0.872-1.007,1.392-1.88,1.392c-0.588,0-1.159-0.26-1.512-0.688c-0.403-0.489-0.486-1.147-0.252-1.882l4.517-13.542
		c1.158-3.718,4.181-4.115,5.423-4.115h8.881c3.458,0,4.919,2.586,5.473,4.115l1.024,3.076v-5.08c0-3.841,2.602-6.534,6.33-6.534
		h12.827c4.415,0,6.43,3.428,6.43,6.626v15.913c0,0.674-0.219,1.225-0.64,1.622c-0.352,0.321-0.838,0.505-1.342,0.505
		C654.642,437.348,653.6,436.689,653.6,435.236z M676.062,445.886c-0.218,0.26-0.57,0.429-0.924,0.429
		c-0.536,0-0.973-0.337-1.158-0.918l-2.769-8.478h-1.327l4.718,14.781h-4.249v11.767c0,0.842-0.704,1.24-1.359,1.24
		c-0.368,0-0.705-0.107-0.938-0.307c-0.271-0.214-0.421-0.535-0.421-0.934v-11.843h-1.831v11.828c0,0.856-0.704,1.255-1.374,1.255
		c-0.656,0-1.378-0.398-1.378-1.255V451.7h-4.265l4.668-14.781h-1.293l-2.771,8.508c-0.2,0.551-0.638,0.872-1.175,0.872
		c-0.369,0-0.723-0.153-0.94-0.428c-0.251-0.307-0.302-0.735-0.151-1.194l3.022-9.073c0.251-0.812,1.108-2.693,3.543-2.693h5.942
		c2.267,0,3.224,1.698,3.575,2.693l3.023,9.043C676.382,445.136,676.315,445.564,676.062,445.886z"/>
</g>
<text transform="matrix(1 0 0 1 319.9619 825.8047)" font-family="'HelveticaNeue-Bold'" font-size="3.8014">Created by Gilbert Bages</text>
<text transform="matrix(1 0 0 1 319.9619 829.6055)" font-family="'HelveticaNeue-Bold'" font-size="3.8014">from the Noun Project</text>
</svg>
