<?xml version="1.0" encoding="utf-8"?>
<!-- Generator: Adobe Illustrator 16.0.0, SVG Export Plug-In . SVG Version: 6.00 Build 0)  -->
<!DOCTYPE svg PUBLIC "-//W3C//DTD SVG 1.1//EN" "http://www.w3.org/Graphics/SVG/1.1/DTD/svg11.dtd">
<svg version="1.1" id="Layer_1" xmlns="http://www.w3.org/2000/svg" xmlns:xlink="http://www.w3.org/1999/xlink" x="0px" y="0px"
	 width="220px" height="220px" viewBox="530 290 220 220" enable-background="new 530 290 220 220" xml:space="preserve">
<path d="M561.514,470.666H634.2c0.835,0,1.515-0.678,1.515-1.514V366.181c0-0.835-0.679-1.514-1.515-1.514h-72.686
	c-0.835,0-1.514,0.678-1.514,1.514v102.97C560,469.988,560.679,470.666,561.514,470.666z M613,381.325
	c0-0.837,0.678-1.514,1.514-1.514h12.114c0.835,0,1.514,0.679,1.514,1.514v12.112c0,0.839-0.678,1.513-1.514,1.513h-12.114
	c-0.835,0-1.514-0.676-1.514-1.513V381.325z M613,411.608c0-0.836,0.678-1.512,1.514-1.512h12.114c0.835,0,1.514,0.677,1.514,1.512
	v12.114c0,0.838-0.678,1.513-1.514,1.513h-12.114c-0.835,0-1.514-0.677-1.514-1.513V411.608z M613,441.896
	c0-0.839,0.678-1.514,1.514-1.514h12.114c0.835,0,1.514,0.677,1.514,1.514v12.112c0,0.838-0.678,1.515-1.514,1.515h-12.114
	c-0.835,0-1.514-0.679-1.514-1.515V441.896z M590.286,381.325c0-0.837,0.679-1.514,1.514-1.514h12.114
	c0.836,0,1.514,0.679,1.514,1.514v12.112c0,0.839-0.678,1.513-1.514,1.513H591.8c-0.835,0-1.514-0.676-1.514-1.513V381.325z
	 M590.286,411.608c0-0.836,0.679-1.512,1.514-1.512h12.114c0.836,0,1.514,0.677,1.514,1.512v12.114c0,0.838-0.678,1.513-1.514,1.513
	H591.8c-0.835,0-1.514-0.677-1.514-1.513V411.608z M590.286,441.896c0-0.839,0.679-1.514,1.514-1.514h12.114
	c0.836,0,1.514,0.677,1.514,1.514v12.112c0,0.838-0.678,1.515-1.514,1.515H591.8c-0.835,0-1.514-0.679-1.514-1.515V441.896z
	 M567.572,381.325c0-0.837,0.679-1.514,1.514-1.514H581.2c0.837,0,1.514,0.679,1.514,1.514v12.112c0,0.839-0.677,1.513-1.514,1.513
	h-12.114c-0.837,0-1.514-0.676-1.514-1.513V381.325z M567.572,411.608c0-0.836,0.679-1.512,1.514-1.512H581.2
	c0.837,0,1.514,0.677,1.514,1.512v12.114c0,0.838-0.677,1.513-1.514,1.513h-12.114c-0.837,0-1.514-0.677-1.514-1.513V411.608z
	 M567.572,441.896c0-0.839,0.679-1.514,1.514-1.514H581.2c0.837,0,1.514,0.677,1.514,1.514v12.112c0,0.838-0.677,1.515-1.514,1.515
	h-12.114c-0.837,0-1.514-0.679-1.514-1.515V441.896z"/>
<path d="M717.486,394.953H644.8c-0.835,0-1.515,0.679-1.515,1.514v72.686c0,0.836,0.68,1.514,1.515,1.514h72.687
	c0.836,0,1.514-0.678,1.514-1.514v-72.686C719,395.629,718.322,394.953,717.486,394.953z M666,454.009
	c0,0.838-0.679,1.515-1.514,1.515h-12.115c-0.835,0-1.513-0.679-1.513-1.515v-12.112c0-0.839,0.678-1.514,1.513-1.514h12.115
	c0.835,0,1.514,0.677,1.514,1.514V454.009z M666,423.725c0,0.837-0.679,1.513-1.514,1.513h-12.115c-0.835,0-1.513-0.677-1.513-1.513
	v-12.113c0-0.838,0.678-1.514,1.513-1.514h12.115c0.835,0,1.514,0.677,1.514,1.514V423.725z M688.715,454.009
	c0,0.838-0.679,1.515-1.515,1.515h-12.114c-0.836,0-1.514-0.679-1.514-1.515v-12.112c0-0.839,0.678-1.514,1.514-1.514H687.2
	c0.836,0,1.515,0.677,1.515,1.514V454.009z M688.715,423.725c0,0.837-0.679,1.513-1.515,1.513h-12.114
	c-0.836,0-1.514-0.677-1.514-1.513v-12.113c0-0.838,0.678-1.514,1.514-1.514H687.2c0.836,0,1.515,0.677,1.515,1.514V423.725z
	 M711.428,454.009c0,0.838-0.678,1.515-1.514,1.515h-12.113c-0.838,0-1.515-0.679-1.515-1.515v-12.112
	c0-0.839,0.677-1.514,1.515-1.514h12.113c0.838,0,1.514,0.677,1.514,1.514V454.009z M711.428,423.725
	c0,0.837-0.678,1.513-1.514,1.513h-12.113c-0.838,0-1.515-0.677-1.515-1.513v-12.113c0-0.838,0.677-1.514,1.515-1.514h12.113
	c0.838,0,1.514,0.677,1.514,1.514V423.725z"/>
</svg>
