<?xml version="1.0" encoding="utf-8"?>
<!-- Generator: Adobe Illustrator 16.0.0, SVG Export Plug-In . SVG Version: 6.00 Build 0)  -->
<!DOCTYPE svg PUBLIC "-//W3C//DTD SVG 1.1//EN" "http://www.w3.org/Graphics/SVG/1.1/DTD/svg11.dtd">
<svg version="1.1" id="Layer_1" xmlns="http://www.w3.org/2000/svg" xmlns:xlink="http://www.w3.org/1999/xlink" x="0px" y="0px"
	 width="220px" height="220px" viewBox="0 0 220 220" enable-background="new 0 0 220 220" xml:space="preserve">
<path display="none" fill="#FFFFFF" stroke="#000000" stroke-miterlimit="10" d="M223.167,106.738"/>
<polygon display="none" fill="none" stroke="#000000" stroke-miterlimit="10" points="166.478,204.936 223.17,106.936 
	166.478,8.936 53.091,8.936 -3.602,106.936 53.091,204.936 "/>
<path fill="#666666" d="M178.401,157.013l-12.533-25.578l3.225-15.496c4.905-0.115,8.864-4.431,8.864-9.712
	c0-5.36-4.069-9.718-9.069-9.718h-2.854c-0.73-2.607-2.472-4.793-4.772-6.113c-0.269,1.961-0.572,4.001-0.904,6.113h-3.752
	c6.291-40.006,0.744-46.626-7.182-48.041c-0.785-0.14-1.567-0.225-2.343-0.225c-7.419,0-14.528,7.727-22.067,48.266h-1.39
	c-0.354-1.369-0.921-2.649-1.659-3.812c1.934-10.038,3.891-18.279,5.963-24.931c-5.521,0.15-9.953,4.662-9.953,10.219
	c-2.34,0-4.555,0.505-6.565,1.395c-1.384-4.017-5.185-6.909-9.669-6.909c-1.507,0-2.93,0.333-4.218,0.917
	c-1.87-2.043-4.552-3.333-7.542-3.333c-0.674,0-1.335,0.071-1.976,0.196c2.233,2.169,3.786,5.024,4.315,8.206l0.545,3.296
	c-1.265,0.09-2.48,0.357-3.627,0.774l-0.572-3.467c-0.055-0.34-0.133-0.669-0.217-0.996c-0.025-0.094-0.051-0.186-0.078-0.279
	c-0.072-0.247-0.152-0.49-0.239-0.73c-0.028-0.08-0.056-0.161-0.087-0.24c-0.121-0.308-0.253-0.607-0.398-0.899
	c-0.019-0.041-0.043-0.081-0.062-0.122c-0.132-0.25-0.271-0.499-0.42-0.739c-0.045-0.074-0.094-0.148-0.14-0.221
	c-0.151-0.231-0.308-0.457-0.474-0.673c-0.031-0.041-0.059-0.084-0.09-0.124c-0.203-0.259-0.418-0.509-0.643-0.747
	c-0.037-0.038-0.077-0.074-0.111-0.113c-0.192-0.199-0.393-0.39-0.6-0.576c-0.054-0.046-0.106-0.097-0.16-0.141
	c-1.241-1.067-2.711-1.861-4.307-2.297l-2.802-16.924l-9.154,1.516l2.803,16.926c-3.478,2.358-5.462,6.593-4.73,11.008l2.289,13.821
	H65.29l-0.852-5.155c-0.093-0.002-0.182-0.021-0.281-0.021c-3.809,0-7.125,2.084-8.883,5.176h-3.831
	c-4.999,0-9.064,4.358-9.064,9.719c0,5.28,3.958,9.595,8.859,9.712l3.224,15.497l-12.529,25.577
	c-1.125,2.291-0.176,5.063,2.12,6.188c0.655,0.32,1.349,0.473,2.033,0.473c1.709,0,3.354-0.951,4.159-2.593l7.289-14.883
	l2.973,14.281l0.099,0.366c1.073,3.212,4.07,5.371,7.459,5.371h84.203c3.386,0,6.384-2.156,7.46-5.367l0.059-0.181l3.012-14.473
	l7.29,14.885c0.805,1.642,2.448,2.593,4.159,2.593c0.683,0,1.374-0.152,2.031-0.473
	C178.577,162.076,179.528,159.306,178.401,157.013z M66.975,116.423c-2.294-1.124-5.068-0.176-6.192,2.12l-1.67,3.413l-1.717-8.246
	H70.39l1.787,12.256h-4.723l1.642-3.35C70.219,120.319,69.269,117.55,66.975,116.423z M74.13,113.71h14.794l1.006,12.256H75.916
	L74.13,113.71z M112.022,129.666h14.369l-1.012,12.339h-13.357V129.666z M108.319,142.005H94.96l-1.013-12.339h14.372V142.005z
	 M112.022,125.966V113.71H127.7l-1.008,12.256H112.022z M108.319,125.966H93.644l-1.006-12.256h15.68v12.256H108.319z
	 M90.231,129.666l1.014,12.339H78.252l-1.797-12.339H90.231z M91.548,145.706l1.152,14.036H80.839l-2.046-14.036H91.548z
	 M95.259,145.706h13.061v14.036H96.412L95.259,145.706z M112.022,145.706h13.058l-1.152,14.036h-11.905V145.706z M128.791,145.706
	h12.756l-2.047,14.036h-11.862L128.791,145.706z M129.093,142.005l1.014-12.339h13.775l-1.797,12.339H129.093z M130.41,125.966
	l1.003-12.256h14.797l-1.785,12.256H130.41z M149.948,113.71h12.993l-1.714,8.242l-1.673-3.409c-1.122-2.294-3.896-3.244-6.19-2.12
	c-2.295,1.127-3.244,3.896-2.119,6.191l1.64,3.35h-4.72L149.948,113.71z M139.236,62.5c0.118-0.045,0.308-0.145,0.534-0.209
	c0.458-0.162,1.105-0.34,1.866-0.477c0.726-0.128,1.55-0.198,2.421-0.198c0.959,0,1.976,0.084,2.973,0.26
	c1.904,0.337,3.748,1.018,5.078,1.8c0.67,0.392,1.212,0.784,1.586,1.094c0.191,0.141,0.33,0.299,0.43,0.386
	c0.102,0.092,0.152,0.144,0.152,0.144s-0.066,0.027-0.189,0.081c-0.122,0.048-0.312,0.147-0.537,0.211
	c-0.459,0.164-1.104,0.341-1.865,0.478c-0.723,0.13-1.539,0.2-2.402,0.2c-0.963,0-1.986-0.084-2.988-0.266
	c-1.905-0.343-3.746-1.024-5.084-1.807c-0.664-0.391-1.21-0.783-1.584-1.092c-0.189-0.141-0.33-0.297-0.432-0.384
	c-0.098-0.093-0.148-0.14-0.148-0.14S139.111,62.552,139.236,62.5z M136.714,72.399c0.533-0.148,1.283-0.314,2.166-0.421
	c0.686-0.087,1.451-0.133,2.265-0.133c1.278,0,2.671,0.113,4.042,0.358c2.234,0.396,4.412,1.138,5.994,1.966
	c0.795,0.404,1.439,0.82,1.883,1.148c0.451,0.318,0.697,0.548,0.697,0.548s-0.312,0.128-0.842,0.275
	c-0.531,0.148-1.283,0.317-2.166,0.422c-0.683,0.089-1.443,0.135-2.244,0.135c-1.287,0-2.686-0.118-4.059-0.366
	c-2.237-0.401-4.409-1.145-5.995-1.97c-0.793-0.404-1.442-0.82-1.887-1.146c-0.448-0.318-0.692-0.544-0.692-0.544
	S136.183,72.542,136.714,72.399z M134.868,82.726c0.532-0.149,1.284-0.316,2.168-0.421c0.688-0.088,1.451-0.134,2.263-0.134
	c1.279,0,2.673,0.113,4.042,0.358c2.238,0.396,4.412,1.138,5.995,1.964c0.794,0.406,1.442,0.822,1.888,1.147
	c0.447,0.32,0.694,0.55,0.694,0.55s-0.313,0.13-0.843,0.274c-0.529,0.15-1.281,0.318-2.164,0.424
	c-0.684,0.089-1.444,0.135-2.246,0.135c-1.287,0-2.684-0.117-4.062-0.365c-2.232-0.4-4.406-1.144-5.99-1.971
	c-0.791-0.404-1.439-0.82-1.885-1.146c-0.45-0.316-0.696-0.546-0.696-0.546S134.341,82.868,134.868,82.726z M134.771,95.015
	c-0.795-0.404-1.442-0.821-1.887-1.147c-0.45-0.318-0.698-0.544-0.698-0.544s0.312-0.128,0.845-0.271
	c0.529-0.148,1.279-0.314,2.164-0.422c0.685-0.088,1.451-0.132,2.262-0.132c1.278,0,2.672,0.113,4.044,0.356
	c2.235,0.397,4.41,1.14,5.997,1.968c0.793,0.404,1.438,0.82,1.883,1.146c0.423,0.302,0.661,0.519,0.688,0.539h-11.386
	C137.216,96.104,135.853,95.582,134.771,95.015z M85.102,96.508c-0.065-0.438-0.11-0.883-0.11-1.339
	c0-4.874,3.967-8.839,8.838-8.839c3.07,0,5.772,1.582,7.357,3.969c-1.709,1.684-2.961,3.817-3.582,6.209H85.102z M110.614,91.055
	c3.674,0,6.82,2.256,8.146,5.455h-16.305C103.788,93.31,106.94,91.055,110.614,91.055z M48.858,106.227
	c0-1.756,1.185-3.243,2.588-3.243h117.441c1.405,0,2.592,1.486,2.592,3.243c0,1.753-1.187,3.237-2.592,3.237h-3.938v-0.006H53.928
	v0.006h-2.481C50.043,109.464,48.858,107.979,48.858,106.227z M65.64,129.666h7.074l1.799,12.339H63.28l-1.097-5.285L65.64,129.666z
	 M66.799,158.921l-2.749-13.215h11.001l2.047,14.036h-9.032C67.516,159.741,67.02,159.415,66.799,158.921z M152.27,159.741h-9.028
	l2.045-14.036h11l-2.748,13.214C153.315,159.415,152.821,159.741,152.27,159.741z M157.056,142.005h-11.23l1.797-12.339h7.078
	l3.453,7.053L157.056,142.005z"/>
</svg>
