<?xml version="1.0" encoding="utf-8"?>
<!-- Generator: Adobe Illustrator 16.0.0, SVG Export Plug-In . SVG Version: 6.00 Build 0)  -->
<!DOCTYPE svg PUBLIC "-//W3C//DTD SVG 1.1//EN" "http://www.w3.org/Graphics/SVG/1.1/DTD/svg11.dtd">
<svg version="1.1" id="Layer_1" xmlns="http://www.w3.org/2000/svg" xmlns:xlink="http://www.w3.org/1999/xlink" x="0px" y="0px"
	 width="220px" height="220px" viewBox="0 0 220 220" enable-background="new 0 0 220 220" xml:space="preserve">
<path display="none" fill="#FFFFFF" stroke="#000000" stroke-miterlimit="10" d="M223.574,109.61"/>
<polygon display="none" fill="none" stroke="#000000" stroke-miterlimit="10" points="166.885,207.808 223.577,109.808 
	166.885,11.808 53.499,11.808 -3.194,109.808 53.499,207.808 "/>
<g opacity="0.6">
	<path d="M75.69,184.585c-7.591,0-14.238-4.366-16.936-11.122c-1.585-3.961-1.637-8.178-0.151-12.889
		c1.441-4.582,3.672-9.159,7.232-14.84c2.149-3.427,4.679-6.988,7.963-11.209c0.511-0.657,1.129-0.99,1.835-0.99
		c1.042,0,1.628,0.737,1.822,0.979c1.458,1.815,2.9,3.737,4.405,5.87c4.265,6.052,7.108,10.928,9.217,15.812
		c1.45,3.361,2.27,6.204,2.582,8.947c0.049,0.422,0.074,0.85,0.099,1.277l0.034,0.59c0.147,8.376-6.461,15.99-15.045,17.333
		C77.733,184.504,76.705,184.585,75.69,184.585z M75.643,138.191c-2.69,3.52-4.831,6.572-6.673,9.508
		c-3.385,5.402-5.494,9.715-6.836,13.984c-1.216,3.865-1.198,7.27,0.059,10.406c2.131,5.342,7.43,8.794,13.498,8.794
		c0.825,0,1.66-0.065,2.483-0.194c6.785-1.062,12.013-7.021,11.92-13.574l-0.03-0.479c-0.021-0.357-0.04-0.717-0.082-1.073
		c-0.269-2.373-1-4.883-2.303-7.899c-2.004-4.642-4.732-9.312-8.843-15.146C77.749,140.976,76.695,139.549,75.643,138.191z"/>
</g>
<g>
	<path d="M165.531,43.455c0,2.417-2.133,4.266-4.551,4.266h-26.309v15.5h26.451c2.417,0,4.408,1.991,4.408,4.409v27.872
		c0,2.417-1.991,4.408-4.408,4.408H95.708c-0.853,0-1.422,0.711-1.422,1.422v16.21c0,2.418-1.991,4.409-4.409,4.409H60.441
		c-2.418,0-4.409-1.991-4.409-4.409V82.277c0-10.523,8.532-19.056,19.056-19.056h50.767v-15.5h-26.45c-2.56,0-4.55-1.991-4.408-4.55
		c0.142-2.417,2.133-4.266,4.551-4.266h61.575C163.682,38.904,165.673,40.895,165.531,43.455z"/>
</g>
</svg>
