<?xml version="1.0" encoding="utf-8"?>
<!-- Generator: Adobe Illustrator 16.0.0, SVG Export Plug-In . SVG Version: 6.00 Build 0)  -->
<!DOCTYPE svg PUBLIC "-//W3C//DTD SVG 1.1//EN" "http://www.w3.org/Graphics/SVG/1.1/DTD/svg11.dtd">
<svg version="1.1" id="Layer_1" xmlns="http://www.w3.org/2000/svg" xmlns:xlink="http://www.w3.org/1999/xlink" x="0px" y="0px"
	 width="220px" height="220px" viewBox="514.909 249.984 220 220" enable-background="new 514.909 249.984 220 220"
	 xml:space="preserve">
<title>BananaPeel</title>
<path d="M600.049,382.37c-3.663,1.895-7.714,2.921-11.838,2.999c-7.372,0-12.444-3.859-15.218-11.578
	c0.103,1.186,0.365,2.352,0.78,3.467c1.337,3.226,3.278,6.167,5.719,8.666c-3.729-0.891-7.289-2.384-10.538-4.42
	c-6.786-4.474-10.732-12.175-10.4-20.296c0.076-4.616,0.907-9.189,2.461-13.537l6.69-0.814c2.585,5.214,5.57,10.22,8.926,14.975
	C584.179,372.484,591.983,379.331,600.049,382.37z M676.9,374.172c3.237,6.783,4.924,14.201,4.939,21.717
	c0,12.491-5.246,22.423-15.737,29.794c0.89-3.891,1.378-7.864,1.455-11.855c-0.241-6.488-2.269-12.786-5.858-18.198
	c-5.027-7.721-9.543-15.764-13.519-24.075c-6.679-15.946-9.758-29.991-9.238-42.135c-3.386,21.423-15.224,38.68-35.514,51.771
	l-2.6-1.04c-0.232-0.052-0.455-0.14-0.659-0.26c-5.196-2.514-9.894-5.949-13.866-10.139c7.911-3.742,15.266-8.56,21.856-14.316
	c8.724-7.546,14.305-15.178,16.743-22.896c4.16-11.705,8.782-17.17,13.866-16.396c-0.693-8.493,0-15.345,2.081-20.556
	c1.017-0.857,2.309-1.319,3.639-1.3c1.482,0.03,2.925,0.481,4.161,1.3c-1.706,5.354-2.709,10.906-2.982,16.518
	c-0.114,1.392,0.155,2.789,0.78,4.039l2.6,2.6c2.08,2.08,5.42,8.065,10.019,17.956C666.98,353.962,672.925,366.453,676.9,374.172z
	 M644.922,369.873c-3.084,7.342-6.887,14.361-11.353,20.955c-9.683,13.958-20.209,21.157-31.579,21.596l-2.08-1.733
	c-0.177-1.077-0.264-2.167-0.26-3.258c0-6.066,2.34-12.572,7.019-19.516c3.559-4.854,7.118-9.666,10.677-14.438
	c9.085-8.169,16.051-18.423,20.296-29.881C638.929,352.633,641.375,361.464,644.922,369.873z"/>
<text transform="matrix(1 0 0 1 320 736)" display="none" enable-background="new    " font-family="'HelveticaNeue-Bold'" font-size="32">Created by Hans Gerhard Meier</text>
<text transform="matrix(1 0 0 1 320 768)" display="none" enable-background="new    " font-family="'HelveticaNeue-Bold'" font-size="32">from the Noun Project</text>
</svg>
